<svg width="437" height="294" viewBox="0 0 437 294" fill="none" xmlns="http://www.w3.org/2000/svg">
<rect width="436.301" height="293" rx="20" fill="white" fill-opacity="0.06"/>
<rect x="0.5" y="0.5" width="435.301" height="292" rx="19.5" stroke="white" stroke-opacity="0.1"/>
<mask id="path-3-inside-1_423_4293" fill="white">
<path fill-rule="evenodd" clip-rule="evenodd" d="M95.8294 50.3617C95.1693 50.6884 94.7155 51.3688 94.7155 52.1552V59.3061C94.7155 60.4107 95.6109 61.3061 96.7155 61.3061H97.0043C98.1088 61.3061 99.0043 60.4107 99.0043 59.3061V52.1552C99.0043 51.2548 98.4093 50.4934 97.5911 50.2427C99.2043 41.427 107.083 34.7155 116.588 34.7155C126.094 34.7155 133.973 41.427 135.586 50.2427C134.768 50.4934 134.173 51.2548 134.173 52.1552V59.3061C134.173 60.4107 135.068 61.3061 136.173 61.3061H136.461C137.566 61.3061 138.461 60.4107 138.461 59.3061V52.1552C138.461 51.3688 138.008 50.6885 137.347 50.3617C135.767 40.512 127.061 33 116.588 33C106.116 33 97.41 40.5119 95.8294 50.3617Z"/>
</mask>
<path fill-rule="evenodd" clip-rule="evenodd" d="M95.8294 50.3617C95.1693 50.6884 94.7155 51.3688 94.7155 52.1552V59.3061C94.7155 60.4107 95.6109 61.3061 96.7155 61.3061H97.0043C98.1088 61.3061 99.0043 60.4107 99.0043 59.3061V52.1552C99.0043 51.2548 98.4093 50.4934 97.5911 50.2427C99.2043 41.427 107.083 34.7155 116.588 34.7155C126.094 34.7155 133.973 41.427 135.586 50.2427C134.768 50.4934 134.173 51.2548 134.173 52.1552V59.3061C134.173 60.4107 135.068 61.3061 136.173 61.3061H136.461C137.566 61.3061 138.461 60.4107 138.461 59.3061V52.1552C138.461 51.3688 138.008 50.6885 137.347 50.3617C135.767 40.512 127.061 33 116.588 33C106.116 33 97.41 40.5119 95.8294 50.3617Z" fill="white" fill-opacity="0.06"/>
<path d="M95.8294 50.3617L96.273 51.2579L96.735 51.0292L96.8167 50.5202L95.8294 50.3617ZM97.5911 50.2427L96.6074 50.0627L96.4472 50.938L97.2981 51.1988L97.5911 50.2427ZM135.586 50.2427L135.879 51.1988L136.73 50.9381L136.569 50.0627L135.586 50.2427ZM137.347 50.3617L136.36 50.5202L136.442 51.0292L136.904 51.2579L137.347 50.3617ZM95.7155 52.1552C95.7155 51.7635 95.9405 51.4225 96.273 51.2579L95.3857 49.4655C94.3981 49.9544 93.7155 50.9742 93.7155 52.1552H95.7155ZM95.7155 59.3061V52.1552H93.7155V59.3061H95.7155ZM96.7155 60.3061C96.1632 60.3061 95.7155 59.8584 95.7155 59.3061H93.7155C93.7155 60.963 95.0586 62.3061 96.7155 62.3061V60.3061ZM97.0043 60.3061H96.7155V62.3061H97.0043V60.3061ZM98.0043 59.3061C98.0043 59.8584 97.5565 60.3061 97.0043 60.3061V62.3061C98.6611 62.3061 100.004 60.963 100.004 59.3061H98.0043ZM98.0043 52.1552V59.3061H100.004V52.1552H98.0043ZM97.2981 51.1988C97.708 51.3244 98.0043 51.7065 98.0043 52.1552H100.004C100.004 50.8031 99.1106 49.6624 97.8841 49.2866L97.2981 51.1988ZM98.5747 50.4227C100.1 42.0882 107.559 35.7155 116.588 35.7155V33.7155C106.606 33.7155 98.3086 40.7658 96.6074 50.0627L98.5747 50.4227ZM116.588 35.7155C125.618 35.7155 133.077 42.0882 134.602 50.4227L136.569 50.0627C134.868 40.7658 126.571 33.7155 116.588 33.7155V35.7155ZM135.293 49.2865C134.066 49.6624 133.173 50.8031 133.173 52.1552H135.173C135.173 51.7065 135.469 51.3244 135.879 51.1988L135.293 49.2865ZM133.173 52.1552V59.3061H135.173V52.1552H133.173ZM133.173 59.3061C133.173 60.963 134.516 62.3061 136.173 62.3061V60.3061C135.62 60.3061 135.173 59.8584 135.173 59.3061H133.173ZM136.173 62.3061H136.461V60.3061H136.173V62.3061ZM136.461 62.3061C138.118 62.3061 139.461 60.963 139.461 59.3061H137.461C137.461 59.8584 137.014 60.3061 136.461 60.3061V62.3061ZM139.461 59.3061V52.1552H137.461V59.3061H139.461ZM139.461 52.1552C139.461 50.9742 138.779 49.9545 137.791 49.4656L136.904 51.2579C137.236 51.4225 137.461 51.7635 137.461 52.1552H139.461ZM138.335 50.2033C136.675 39.8604 127.543 32 116.588 32V34C126.578 34 134.859 41.1635 136.36 50.5202L138.335 50.2033ZM116.588 32C105.633 32 96.5018 39.8604 94.842 50.2033L96.8167 50.5202C98.3183 41.1635 106.599 34 116.588 34V32Z" fill="white" fill-opacity="0.2" mask="url(#path-3-inside-1_423_4293)"/>
<path fill-rule="evenodd" clip-rule="evenodd" d="M116.419 68.4914C123.991 68.4635 130.121 62.3163 130.121 54.7375C130.121 47.1413 123.963 40.9834 116.367 40.9834C108.771 40.9834 102.613 47.1413 102.613 54.7375C102.613 62.3164 108.743 68.4635 116.315 68.4914C106.76 68.5091 98.354 73.4049 93.4318 80.8176C92.8566 81.6838 92.856 82.8074 93.4305 83.674C98.3538 91.0997 106.791 95.9995 116.367 95.9995C125.944 95.9995 134.371 91.0994 139.302 83.6732C139.877 82.807 139.878 81.6834 139.303 80.8168C134.389 73.4045 125.974 68.509 116.419 68.4914Z" fill="white" fill-opacity="0.1"/>
<path d="M116.419 68.4914L116.417 67.9914C116.141 67.9924 115.918 68.2163 115.919 68.4919C115.919 68.7675 116.142 68.9909 116.418 68.9914L116.419 68.4914ZM116.315 68.4914L116.316 68.9914C116.592 68.9909 116.815 68.7675 116.815 68.4919C116.815 68.2163 116.593 67.9924 116.317 67.9914L116.315 68.4914ZM93.4318 80.8176L93.0152 80.541L93.0152 80.541L93.4318 80.8176ZM93.4305 83.674L93.0138 83.9503L93.0138 83.9503L93.4305 83.674ZM139.302 83.6732L139.719 83.9498L139.719 83.9498L139.302 83.6732ZM139.303 80.8168L139.72 80.5406L139.72 80.5406L139.303 80.8168ZM116.421 68.9914C124.268 68.9625 130.621 62.5919 130.621 54.7375H129.621C129.621 62.0408 123.714 67.9645 116.417 67.9914L116.421 68.9914ZM130.621 54.7375C130.621 46.8652 124.239 40.4834 116.367 40.4834V41.4834C123.687 41.4834 129.621 47.4174 129.621 54.7375H130.621ZM116.367 40.4834C108.495 40.4834 102.113 46.8652 102.113 54.7375H103.113C103.113 47.4174 109.047 41.4834 116.367 41.4834V40.4834ZM102.113 54.7375C102.113 62.5919 108.466 68.9625 116.313 68.9914L116.317 67.9914C109.02 67.9645 103.113 62.0408 103.113 54.7375H102.113ZM116.314 67.9914C106.584 68.0094 98.0258 72.9953 93.0152 80.541L93.8483 81.0942C98.6823 73.8144 106.935 69.0087 116.316 68.9914L116.314 67.9914ZM93.0152 80.541C92.3289 81.5746 92.3281 82.916 93.0138 83.9503L93.8473 83.3977C93.3839 82.6987 93.3843 81.7929 93.8483 81.0942L93.0152 80.541ZM93.0138 83.9503C98.0257 91.5097 106.616 96.4995 116.367 96.4995V95.4995C106.965 95.4995 98.6818 90.6897 93.8473 83.3977L93.0138 83.9503ZM116.367 96.4995C126.119 96.4995 134.699 91.5091 139.719 83.9498L138.886 83.3966C134.043 90.6896 125.769 95.4995 116.367 95.4995V96.4995ZM139.719 83.9498C140.405 82.9162 140.406 81.5748 139.72 80.5406L138.887 81.0931C139.35 81.7921 139.35 82.6979 138.886 83.3966L139.719 83.9498ZM139.72 80.5406C134.717 72.9947 126.149 68.0093 116.42 67.9914L116.418 68.9914C125.799 69.0087 134.061 73.8143 138.887 81.0931L139.72 80.5406Z" fill="white" fill-opacity="0.2"/>
<path d="M337 222.206C337 222.206 359.497 221.607 361.945 246.245C361.951 246.245 341.815 249.551 337 222.206Z" stroke="white" stroke-opacity="0.2" stroke-miterlimit="10"/>
<path d="M337 180.001C337 180.001 359.497 179.402 361.945 204.04C361.951 204.04 341.815 207.346 337 180.001Z" stroke="white" stroke-opacity="0.2" stroke-miterlimit="10"/>
<path d="M386.934 237.861C386.934 237.861 387.314 259.854 363.651 262.027C363.651 262.027 360.657 242.326 386.934 237.861Z" stroke="white" stroke-opacity="0.2" stroke-miterlimit="10"/>
<path d="M386.934 199.741C386.934 199.741 387.314 221.734 363.651 223.907C363.651 223.907 360.657 204.206 386.934 199.741Z" stroke="white" stroke-opacity="0.2" stroke-miterlimit="10"/>
<path d="M362.867 293L362.867 184.765" stroke="white" stroke-opacity="0.2" stroke-miterlimit="10" stroke-linecap="round"/>
<path d="M209.456 71C219.644 71 227.912 79.2683 227.912 89.4561C227.912 100.284 218.069 106.239 218.069 116.525H200.843C200.843 106.239 191 100.284 191 89.4561C191 79.2683 199.268 71 209.456 71Z" fill="white" fill-opacity="0.06" stroke="white" stroke-opacity="0.2" stroke-width="2" stroke-linecap="round" stroke-linejoin="round"/>
<path d="M202.074 124.843H216.838" stroke="white" stroke-opacity="0.2" stroke-width="2" stroke-linecap="round" stroke-linejoin="round"/>
<path d="M206.995 133H211.917" stroke="white" stroke-opacity="0.2" stroke-width="2" stroke-linecap="round" stroke-linejoin="round"/>
<path d="M102.38 217.571H102.366V213.144C102.366 213.067 102.366 212.991 102.353 212.914C102.36 212.837 102.366 212.76 102.366 212.683V212.504C102.366 212.504 102.366 212.46 102.366 212.44V208.212C102.366 208.128 102.353 208.045 102.34 207.956C102.36 207.821 102.373 207.687 102.373 207.546H102.34C102.347 207.469 102.36 207.393 102.36 207.316V202.838C102.36 202.761 102.353 202.684 102.347 202.607C102.347 202.543 102.36 202.473 102.36 202.409H102.347C102.347 202.351 102.36 202.294 102.36 202.236V197.758C102.36 197.72 102.353 197.675 102.347 197.63C102.36 197.521 102.373 197.419 102.373 197.304H102.32C102.347 197.157 102.36 197.009 102.36 196.862V192.199C102.36 192.199 102.36 192.179 102.36 192.167V187.803C102.36 187.739 102.347 187.675 102.34 187.605C102.353 187.496 102.366 187.388 102.366 187.272H102.327C102.347 187.151 102.36 187.029 102.36 186.908V182.43C102.36 182.372 102.353 182.314 102.347 182.257C102.347 182.212 102.36 182.174 102.36 182.129H102.34C101.859 178.105 91.7118 176 81.6832 176C71.6546 176 61.5139 178.105 61.0264 182.129H61C61 182.186 61.0066 182.244 61.0132 182.302C61.0132 182.346 61 182.385 61 182.43V186.908C61 187.029 61.0132 187.151 61.0329 187.272H61.0132C61.0132 187.356 61.0264 187.432 61.0329 187.509C61.0198 187.605 61.0066 187.701 61.0066 187.797V196.856C61.0066 197.003 61.0198 197.15 61.0461 197.297H61.0198C61.0198 197.355 61.0264 197.406 61.0329 197.457C61.0198 197.553 61.0066 197.649 61.0066 197.745V202.223C61.0066 202.281 61.0132 202.339 61.0198 202.396H61C61 202.46 61.0132 202.524 61.0132 202.595C61.0066 202.671 61 202.754 61 202.831V207.31C61 207.386 61.0132 207.463 61.0198 207.54H61.0132C61.0132 207.636 61.0264 207.738 61.0329 207.834C61.0132 207.956 61 208.077 61 208.205V212.683C61 212.76 61 212.837 61.0132 212.914C61.0066 212.991 61 213.067 61 213.144V217.622C61 217.769 61.0132 217.917 61.0395 218.07C61.0132 218.217 61 218.364 61 218.518V222.996C61 227.219 71.4042 229.426 81.6832 229.426C91.9622 229.426 102.366 227.219 102.366 222.996V218.518C102.366 218.371 102.353 218.224 102.327 218.077C102.36 217.91 102.386 217.744 102.386 217.571H102.38ZM63.0097 207.489C62.9899 207.431 62.9833 207.367 62.9833 207.31V205.313C66.4821 207.636 74.1189 208.832 81.6898 208.832C89.2607 208.832 96.8974 207.629 100.396 205.313V207.31C100.396 207.367 100.39 207.425 100.37 207.489L100.291 207.751L100.33 207.879C99.5199 209.689 92.4366 212.05 81.703 212.05C70.9693 212.05 63.807 209.664 63.069 207.847L63.0953 207.757L63.0163 207.489H63.0097ZM62.9965 202.345C62.9899 202.307 62.9833 202.268 62.9833 202.23V200.208C66.4755 202.531 74.1189 203.74 81.703 203.74C89.287 203.74 96.8908 202.543 100.396 200.227V202.236C100.396 202.281 100.396 202.319 100.383 202.358L100.35 202.537L100.363 202.62C99.8428 204.443 92.687 206.919 81.6898 206.919C70.6926 206.919 63.5368 204.443 63.0163 202.62L63.0294 202.537L62.9899 202.351L62.9965 202.345ZM63.0097 197.041C62.9899 196.984 62.9833 196.92 62.9833 196.862V195.071C66.4821 197.393 74.1189 198.596 81.6898 198.596C89.2607 198.596 96.8908 197.393 100.39 195.077V196.862C100.39 196.92 100.383 196.977 100.363 197.048L100.284 197.31L100.357 197.553C99.7505 199.377 92.6145 201.814 81.6964 201.814C70.7782 201.814 63.5368 199.332 63.0229 197.508L63.0822 197.304L63.0031 197.035L63.0097 197.041ZM63.0097 187.087C62.9899 187.029 62.9833 186.965 62.9833 186.908V185.04C66.4821 187.356 74.1123 188.558 81.6832 188.558C89.2541 188.558 96.8974 187.356 100.39 185.033V186.901C100.39 186.959 100.383 187.023 100.363 187.081L100.284 187.343L100.344 187.535C99.6714 189.352 92.5552 191.77 81.6964 191.77C70.8375 191.77 63.6488 189.345 63.036 187.522L63.0887 187.356L63.0097 187.087ZM81.6964 193.702C89.2607 193.702 96.8908 192.506 100.396 190.183V192.16C100.383 193.996 93.1021 196.664 81.6964 196.664C70.2906 196.664 62.9833 193.996 62.9833 192.16V190.177C66.4755 192.499 74.1189 193.702 81.6964 193.702ZM81.6964 213.969C89.2607 213.969 96.8842 212.773 100.39 210.457V212.472C100.278 214.308 93.023 216.944 81.6898 216.944C70.3565 216.944 62.9833 214.27 62.9833 212.434V210.444C66.4755 212.767 74.1189 213.969 81.6964 213.969ZM62.9965 217.571H62.9767V215.338C66.4755 217.661 74.1123 218.863 81.6898 218.863C89.2672 218.863 96.8908 217.667 100.39 215.345V217.622C100.39 217.68 100.383 217.737 100.363 217.801L100.35 217.853C99.6649 219.67 92.5486 222.081 81.703 222.081C70.284 222.081 62.9965 219.407 62.9965 217.571ZM81.6832 177.919C92.7661 177.919 99.9548 180.44 100.37 182.27C100.021 184.099 92.8188 186.645 81.6832 186.645C70.5476 186.645 63.4116 184.125 62.9965 182.295C63.3457 180.465 70.5476 177.919 81.6832 177.919ZM81.6832 227.5C70.2643 227.5 62.9767 224.826 62.9767 222.99V220.469C66.469 222.798 74.1123 224.001 81.6964 224.001C89.2804 224.001 96.8777 222.804 100.383 220.488V222.983C100.383 224.826 93.0955 227.494 81.6766 227.494L81.6832 227.5Z" fill="#54827A"/>
<path d="M101.634 208.363C101.634 208.458 101.645 208.553 101.657 208.641C101.639 208.736 101.634 208.825 101.634 208.919V213.058C101.634 213.194 101.651 213.336 101.693 213.472C101.651 213.608 101.634 213.744 101.634 213.88V218.02C101.634 218.09 101.639 218.167 101.651 218.238C101.639 218.309 101.634 218.38 101.634 218.451V222.59C101.634 222.726 101.651 222.868 101.693 223.004C101.651 223.14 101.634 223.276 101.634 223.412V227.551C101.634 230.342 109.545 232.607 119.308 232.607C129.07 232.607 136.982 230.342 136.982 227.551V223.412C136.982 223.276 136.958 223.134 136.923 222.998C136.964 222.862 136.982 222.726 136.982 222.584V218.445C136.982 218.374 136.976 218.303 136.964 218.232C136.976 218.161 136.982 218.09 136.982 218.014V213.874C136.982 213.738 136.958 213.596 136.923 213.46C136.964 213.324 136.982 213.188 136.982 213.047V208.907C136.982 208.819 136.97 208.718 136.953 208.629C136.97 208.535 136.982 208.446 136.982 208.352" stroke="#54827A" stroke-width="2" stroke-miterlimit="10"/>
<path d="M101.634 208.522C101.634 211.313 109.545 213.578 119.308 213.578C129.07 213.578 136.982 211.313 136.982 208.522" stroke="#54827A" stroke-width="2" stroke-miterlimit="10"/>
<path d="M101.646 213.276C101.646 216.067 109.557 218.332 119.32 218.332C129.082 218.332 136.994 216.067 136.994 213.276" stroke="#54827A" stroke-width="2" stroke-miterlimit="10"/>
<path d="M101.639 217.794C101.639 220.585 109.551 222.85 119.314 222.85C129.076 222.85 136.988 220.585 136.988 217.794" stroke="#54827A" stroke-width="2" stroke-miterlimit="10"/>
<path d="M101.651 222.542C101.651 225.333 109.563 227.598 119.326 227.598C129.088 227.598 137 225.333 137 222.542" stroke="#54827A" stroke-width="2" stroke-miterlimit="10"/>
<path d="M136.988 208.842C136.988 206.051 129.076 203.786 119.314 203.786C109.551 203.786 101.646 206.051 101.646 208.842" stroke="#54827A" stroke-width="2" stroke-miterlimit="10"/>
</svg>
