<svg width="183" height="304" viewBox="0 0 183 304" fill="none" xmlns="http://www.w3.org/2000/svg">
<path d="M102.406 78.129C146.648 78.129 182.513 55.1044 182.513 26.7021H22.2988C22.2988 55.1044 58.1641 78.129 102.406 78.129Z" fill="#086959"/>
<ellipse cx="102.406" cy="26.7024" rx="80.1073" ry="26.7024" fill="#004439"/>
<path d="M100.817 86.4145C100.709 70.0865 92.1178 59.5118 85.7956 54.6522C83.7479 53.0782 81.2091 52.3855 78.645 52.0755C62.46 50.1184 44.853 46.2416 37.1348 42.2273C83.3321 21.2745 144.073 33.497 168.669 42.2273C154.432 49.4709 133.845 52.1803 122.193 52.7244C119.414 52.8542 116.556 53.2826 114.394 55.0343C105.565 62.1893 103.739 78.3067 104.025 86.4145V171.093H100.817C100.87 156.096 100.945 105.825 100.817 86.4145Z" fill="#FFC500"/>
<path d="M54.7512 42.6987C59.5413 40.3104 73.2439 35.7513 89.7342 36.6211" stroke="#F4DDB3" stroke-width="2" stroke-linecap="round"/>
<path d="M121.242 303.256H84.7311C79.2221 303.256 74.7507 298.8 74.7311 293.291L74.6074 258.457L78.6614 249.55V240.381L74.7665 231.212V196.368L95.2147 174.362H110.307L131.242 196.892V231.212L127.347 240.381V249.419L131.242 258.457V293.256C131.242 298.778 126.765 303.256 121.242 303.256Z" fill="#086959"/>
<path d="M121.478 230.997H74.6074L78.7574 240.273V249.55L74.6074 258.094L82.6632 249.55V240.273L79.7339 234.415L121.478 230.997Z" fill="#004439"/>
<path d="M131.242 291.294H74.8516V293.5C74.8516 299.023 79.3287 303.5 84.8516 303.5H121.242C126.765 303.5 131.242 299.023 131.242 293.5V291.294Z" fill="#FFC500"/>
<path d="M121.242 303.256H84.7311C79.2221 303.256 74.7507 298.8 74.7311 293.291L74.6074 258.457L78.6614 249.55V240.381L74.7665 231.212V196.368L95.2147 174.362H110.307L131.242 196.892V231.212L127.347 240.381V249.419L131.242 258.457V293.256C131.242 298.778 126.765 303.256 121.242 303.256Z" fill="#086959"/>
<path d="M121.478 230.997H74.6074L78.7574 240.273V249.55L74.6074 258.094L82.6632 249.55V240.273L79.7339 234.415L121.478 230.997Z" fill="#004439"/>
<path d="M47.1388 302.166H10.6276C5.11859 302.166 0.647201 297.71 0.627633 292.201L0.503906 257.367L4.55791 248.46V239.291L0.663026 230.122V195.279L21.1112 173.272H36.2038L57.1388 195.803V230.122L53.2439 239.291V248.329L57.1388 257.367V292.166C57.1388 297.689 52.6617 302.166 47.1388 302.166Z" fill="#086959"/>
<path d="M47.3742 229.907H0.503906L4.65388 239.184V248.46L0.503906 257.004L8.55973 248.46V239.184L5.63034 233.325L47.3742 229.907Z" fill="#004439"/>
<path d="M57.1388 290.204H0.748047V292.41C0.748047 297.933 5.22521 302.41 10.7481 302.41H47.1388C52.6617 302.41 57.1388 297.933 57.1388 292.41V290.204Z" fill="#FFC500"/>
<path d="M47.1388 303.256H10.6276C5.11859 303.256 0.647201 298.8 0.627633 293.291L0.503906 258.457L4.55791 249.55V240.381L0.663026 231.212V196.368L21.1112 174.362H36.2038L57.1388 196.892V231.212L53.2439 240.381V249.419L57.1388 258.457V293.256C57.1388 298.778 52.6617 303.256 47.1388 303.256Z" fill="#086959"/>
<path d="M47.3742 230.997H0.503906L4.65388 240.273V249.55L0.503906 258.094L8.55973 249.55V240.273L5.63034 234.415L47.3742 230.997Z" fill="#004439"/>
</svg>
