<svg width="29" height="24" viewBox="0 0 29 24" fill="none" xmlns="http://www.w3.org/2000/svg">
<path d="M20.3163 4.22038C19.427 4.22038 18.7061 3.49948 18.7061 2.61019V2.61019C18.7061 1.72091 17.9852 1 17.0959 1H11.7283C10.839 1 10.1181 1.72091 10.1181 2.61019V2.61019C10.1181 3.49948 9.39717 4.22038 8.50789 4.22038H5C2.79086 4.22038 1 6.01124 1 8.22038V19C1 21.2091 2.79086 23 5 23H23.8242C26.0333 23 27.8242 21.2091 27.8242 19V8.22039C27.8242 6.01125 26.0333 4.22038 23.8242 4.22038H20.3163Z" stroke="white" stroke-opacity="0.7" stroke-width="2" stroke-linecap="round" stroke-linejoin="round"/>
<path d="M14.4114 18.3033C17.0053 18.3033 19.108 16.2006 19.108 13.6067C19.108 11.0129 17.0053 8.91016 14.4114 8.91016C11.8176 8.91016 9.71484 11.0129 9.71484 13.6067C9.71484 16.2006 11.8176 18.3033 14.4114 18.3033Z" stroke="white" stroke-opacity="0.7" stroke-width="2" stroke-linecap="round" stroke-linejoin="round"/>
</svg> 