<svg width="21" height="17" viewBox="0 0 21 17" fill="none" xmlns="http://www.w3.org/2000/svg">
<path d="M14.9262 2.48848C14.2391 2.48848 13.682 1.93141 13.682 1.24424V1.24424C13.682 0.557065 13.1249 0 12.4378 0H8.29003C7.60285 0 7.04579 0.557065 7.04579 1.24424V1.24424C7.04579 1.93141 6.48872 2.48848 5.80155 2.48848H3.52289C1.57725 2.48848 0 4.06573 0 6.01137V13C0 15.2091 1.79086 17 4 17H16.7278C18.9369 17 20.7278 15.2091 20.7278 13V6.01137C20.7278 4.06573 19.1505 2.48848 17.2049 2.48848H14.9262Z" fill="#004439"/>
<path d="M10.3637 13.3708C12.368 13.3708 13.9929 11.746 13.9929 9.74167C13.9929 7.73733 12.368 6.11249 10.3637 6.11249C8.35934 6.11249 6.7345 7.73733 6.7345 9.74167C6.7345 11.746 8.35934 13.3708 10.3637 13.3708Z" fill="white"/>
</svg>
