<svg width="246" height="205" viewBox="0 0 246 205" fill="none" xmlns="http://www.w3.org/2000/svg">
<ellipse cx="122.222" cy="31.7061" rx="122.222" ry="31.7061" transform="matrix(1 0 0 -1 0.931641 205)" fill="#004439"/>
<path d="M55.1387 89.3902V159.92L125.802 189.659L200.373 158.915V87.3809L125.037 110.288L55.1387 89.3902Z" fill="#0E806E"/>
<path d="M125.711 110.905L200.701 87.9259L237.194 55.6748L159.396 78.2506L125.711 110.905Z" fill="#159984"/>
<path d="M132.87 58.7432L133.893 103.122L126.219 110.905L95.6017 84.5574L67.4121 77.1992L132.87 58.7432Z" fill="#086959"/>
<path d="M132.871 103.745L158.946 78.6957L185.033 71.1923L132.871 58.7432V103.745Z" fill="#004439"/>
<path d="M132.871 59.5209L154.179 34.1963L225.944 48.1755L213.877 62.5416L184.747 71.0163L132.871 59.5209Z" fill="#0E806E"/>
<path d="M49.6513 72.6578L35.7051 53.5084L114.601 35.2188L132.869 59.0748L67.2853 77.1526L49.6513 72.6578Z" fill="#086959"/>
<path d="M200.374 88.4033V159.155L126.447 189.658L125.711 110.857L200.374 88.4033Z" fill="#086959"/>
<path d="M160.484 153.861V175.339L173.78 170.566V148.747L160.484 153.861Z" fill="#FFBC40"/>
<path d="M129.995 92.6232H110.714C105.205 92.6232 100.733 88.1677 100.714 82.6587L100.639 61.492L103.456 55.3022V48.9303L100.749 42.5584V18.3453L114.959 3.05273H125.447L139.995 18.7094V42.5584L137.289 48.9303V55.2111L139.995 61.492V82.6232C139.995 88.146 135.518 92.6232 129.995 92.6232Z" fill="#086959"/>
<path d="M129.995 92.6222H110.714C105.205 92.6222 100.733 88.1667 100.714 82.6578L100.639 61.491L103.456 55.3012V48.9293L100.749 42.5574V18.3443L109.12 9.16016H131.344L139.995 18.7084V42.5574L137.289 48.9293V55.2102L139.995 61.491V82.6222C139.995 88.1451 135.518 92.6222 129.995 92.6222Z" fill="#FFBC40"/>
<rect x="114.879" width="10.5177" height="3.05354" fill="white"/>
<path d="M114.879 3.05354H125.397L115.557 2.54462V0.508923L125.397 0H114.879V3.05354Z" fill="#E9E7E6"/>
<path d="M117.934 1.52678L125.398 1.1875V1.86606L117.934 1.52678Z" fill="#EFEEEE"/>
<path d="M139.996 18.6611H100.809V42.4109H139.996V18.6611Z" fill="white"/>
<path d="M55.4131 90.0936L20.3652 64.8799L95.9308 84.0903L125.711 110.905L55.4131 90.0936Z" fill="#159984"/>
</svg>
