<svg width="315" height="233" viewBox="0 0 315 233" fill="none" xmlns="http://www.w3.org/2000/svg">
<path d="M112.371 176.975L112.246 179.272L111.775 181.255L111.178 183.268L111.492 185.093L113.282 186.352L115.669 186.793L116.423 188.02L117.459 190.789L117.616 192.488L117.773 193.715L119.406 194.785L121.196 196.012L121.039 197.396L121.196 199.253L122.232 200.48L123.143 202.022V206.333L122.389 208L121.95 209.542L122.358 212.752H119.877L118.401 212.972L117.082 213.57L114.13 215.709L111.021 217.157L108.195 219.265L95.3504 225.306L93.5917 225.684L84.7985 225.149L84.5787 224.834L83.0085 222.506L82.506 221.373L81.5639 220.02L80.8416 218.478L80.716 217.094L80.7474 216.779L81.5639 217.44L81.9722 217.912L82.5688 218.038L85.8349 218.069L86.1489 218.321L86.8084 219.013L87.0596 219.139L87.4993 219.076L88.7869 218.761L89.3836 218.384L89.9488 217.692L90.6711 217.283L91.7389 217.755L92.0215 217.503L92.3356 217.346H92.6496L93.3719 217.849L93.9058 217.692L94.1884 217.755L94.5967 218.227L94.9421 219.108L95.2248 219.517L95.5388 219.8L95.9157 220.02L96.3553 220.177H96.9834L97.5487 220.052L99.8726 219.108L100.815 218.132L102.385 216.087L102.95 215.678L103.484 215.395L103.861 215.017L103.987 214.325L103.704 213.979L103.139 213.758L102.825 213.475L103.264 213.035L102.762 211.871L102.291 210.266L102.134 208.63L102.573 207.34L103.17 206.962L103.892 206.93L104.646 207.025L105.337 206.93L106.059 206.616L106.53 206.238L106.876 205.766L107.096 205.137L108.132 206.175L109.105 206.458L109.734 205.892L109.859 204.445L109.074 205.263L108.32 205.231L107.567 204.917L106.75 204.791L105.965 205.137L104.709 206.081L103.798 206.27H103.296L102.511 206.364L101.82 206.742L101.537 207.497V210.549L102.102 212.5L102.197 213.035L102.228 213.884L102.197 214.325L102.039 214.671L100.815 215.741L100.406 216.244L97.8627 218.604L97.1718 219.013L96.5751 219.045L96.0413 218.824L95.6016 218.447L95.8842 216.874L94.3454 216.15L90.7339 215.583L88.2844 217.157L87.3737 217.377L86.9654 216.842L86.62 216.464L85.9919 216.276L85.3952 216.402L84.5159 216.905L83.9192 216.999L83.3225 216.842L82.5374 216.433L81.2813 215.583L81.2184 215.332L81.3127 214.608L81.1242 214.482L80.4333 214.388L79.8681 214.136L79.554 213.727L78.8631 212.343L78.235 211.871L78.0466 210.769L77.764 210.171L77.7012 209.699L77.7954 208.976L78.0152 208.504L78.4549 205.263L78.5491 204.948L78.8317 204.602L79.3656 204.099L79.5854 203.469L79.6796 202.368L79.8367 201.833L79.5854 200.952L79.5226 200.386L79.5854 199.788L81.8779 196.106L83.9192 191.827V191.449L83.6366 191.072L82.9143 190.789L82.5688 190.6L82.506 190.159L82.7573 189.53L83.6366 188.555L84.1076 187.737H87.3737L87.7191 187.485L87.8133 183.772L87.939 179.241L88.1274 178.486L88.7241 178.171L92.2728 177.825L94.5653 177.07H95.1933L98.6164 177.416L99.4643 177.322L101.003 176.787L102.165 176.157L103.358 175.717L104.929 175.78L110.487 176.975H112.371Z" fill="white" fill-opacity="0.1" stroke="white" stroke-opacity="0.4" stroke-width="0.6" stroke-linecap="round" stroke-linejoin="round"/>
<path d="M287.574 175.938L287.699 176.504L288.139 176.63L289.489 177.291L289.866 177.605L290.054 177.983L290.4 178.99L290.62 179.367L291.216 179.871L291.499 179.902L291.782 179.588L293.917 177.983L294.043 176.945L294.357 175.875L294.859 175.025L295.644 174.585L296.367 174.711L296.744 175.12L297.026 175.623L297.529 176.032L298.031 176.095L299.005 175.875L300.292 175.843L300.543 176.064L300.449 176.819L300.606 177.322L301.172 177.385L301.8 177.228L302.177 177.071V178.203L302.522 179.21L303.778 180.972L304.94 182.011L305.16 182.514L305.066 183.08L304.438 184.024L304.249 184.591L304.406 185.535L304.877 186.164L305.474 186.73L305.945 187.423L305.976 189.248L306.228 190.097L307.138 190.317L307.829 190.758L308.457 191.198L309.085 191.608L309.902 191.828L310.467 192.048L310.404 192.394L310.122 192.803L309.996 193.118L310.718 194.125L311.001 194.754L311.19 195.1L311.409 195.257L311.849 195.478L311.755 195.698L311.315 196.139V196.579L311.19 197.586L311.033 198.121L311.849 198.278L312.414 198.026L312.791 197.429L312.917 196.516L313.356 196.988L313.576 197.523L313.702 198.121L313.796 199.474L313.639 199.789L313.294 199.977L312.854 200.355H312.634L311.943 200.04L311.629 200.229L311.598 200.544L312.132 201.11L312.226 201.393L312.037 201.928L311.755 202.463L311.566 202.998L311.723 203.848L311.347 204.571L311.378 204.917L312.006 205.138L312.414 205.767L312.571 206.207L312.697 206.742L312.728 207.372L312.634 207.938L312.257 208.316V208.536L312.791 209.511L312.885 210.015L312.477 210.676L311.786 210.801L311.095 211.022L310.561 212.406L310.185 212.689L309.871 213.067L309.902 213.854L310.499 214.137L310.875 214.42L311.127 214.955L311.158 215.49L310.875 217.126L310.938 217.692L311.095 218.447L310.97 219.045L309.933 219.517L309.557 219.863L310.122 220.052L310.499 220.304L311.095 221.342L311.504 221.688L311.472 221.311L311.755 220.744L312.132 220.587L312.446 221.437L312.571 221.877L312.885 222.727L312.98 223.199L313.388 222.569L313.482 222.255L314.142 223.167L314.047 224.394L313.702 225.779L313.608 227.163L312.194 227.1L308.866 225.873L307.138 225.716L302.742 226.031L300.638 226.44L296.712 227.919L294.797 228.233L290.651 228.044L289.583 227.824L286.506 226.534L286.349 226.377H286.003L285.783 226.471L285.218 226.88L283.271 227.919L282.612 228.076L281.512 227.95L278.435 226.943L277.179 226.975L276.268 227.415L274.572 228.988L272.688 230.027L264.115 232.292L263.267 231.883L261.822 229.649L260.911 228.988L258.713 228.17L257.645 227.919L256.766 227.856L255.918 228.044L254.913 228.422L253.437 229.272L252.997 229.397L252.275 229.366L252.087 229.177L252.024 228.8L251.773 228.296L250.328 226.691L249.48 225.999L248.507 225.59L247.47 225.464L244.173 225.653L243.105 225.527L242.822 225.087L242.603 224.583L241.786 224.206L240.279 224.08L239.808 223.891L239.274 223.388L239.148 222.947L239.242 222.381L237.986 221.279L236.008 220.241H234.155L233.307 222.349L233.118 223.356L232.553 223.86L231.705 223.922L230.795 223.576L229.821 223.671L228.942 223.576L228.188 223.167L227.591 222.318L227.371 221.311L227.56 220.461L228.314 218.668L228.502 217.787L228.565 216.717L228.345 215.741L227.686 215.018L226.9 214.892L226.021 215.049L225.11 215.081L224.2 214.609L223.697 215.175L223.289 214.923L222.975 214.892L222.158 214.923L221.31 215.144L221.059 215.049L220.588 214.514L220.306 214.388H219.929L219.049 214.64L218.61 214.703L218.17 214.64L217.542 214.231L217.134 214.105L216.663 214.137L215.155 214.483L214.904 214.546L214.653 214.829L214.339 214.86L214.087 214.766L213.679 214.451L213.271 214.294L213.428 213.476L213.02 212.469L212.36 212.154L212.046 212.217L211.418 212.501L210.853 212.595H209.691L209.031 212.501L208.498 212.28L207.838 211.966L207.461 211.651L207.116 211.21L207.022 210.896L207.084 210.613L207.336 210.172L207.398 209.889L207.524 207.97L207.461 207.655L207.179 206.868L206.833 206.491L206.676 205.798L206.865 205.295L207.304 204.603V204.32L206.927 203.91L207.053 203.69L207.618 203.722L207.838 203.596L207.901 203.25L207.712 202.872L207.493 201.645L207.273 201.425L206.582 200.953L206.111 200.418L205.954 199.977L205.765 199.159L205.514 198.813L205.42 198.498L205.765 197.775L205.546 196.17L205.231 195.855L204.572 195.635L204.478 195.415L204.666 194.974L204.76 194.66L204.635 194.439L204.289 194.093L203.912 193.59L203.347 192.992L202.562 192.489L202.436 192.237L202.468 191.261L201.714 190.695L201.055 189.908L200.678 189.153L200.615 188.65L200.552 187.8L200.332 187.391L200.301 187.076L200.427 186.447L200.395 185.629L200.458 185.252L200.395 184.119L200.27 183.773L200.113 183.521L199.893 183.395L199.861 182.923L201.055 182.357L201.086 179.556L201.934 178.927L201.777 179.808L202.091 180.186L202.688 180.374L203.19 180.28L203.473 179.651L203.724 179.336L204.478 178.958L205.483 178.675L206.142 178.895L205.797 180.028L206.456 179.745L206.896 178.518L207.367 178.235H209.44L211.387 178.612L212.015 178.329L212.549 178.014L213.02 178.109L213.491 178.927L212.988 179.777L212.58 180.248L212.36 180.689L212.392 181.476L212.737 182.294L212.769 182.734L212.957 182.923L213.648 182.892L213.93 183.395L214.621 183.804L214.873 183.993L214.904 184.245L214.716 184.717L215.03 185.252L215.218 185.944L214.998 186.667L214.904 187.36L215.563 187.926L213.491 188.681V188.996L214.527 189.468L214.716 190.758L214.621 192.331L214.873 193.684L215.846 194.817L216.851 195.1L219.081 194.439L220.525 193.873H221.279L222.755 194.03L224.105 194.502L225.016 195.257H225.895L226.335 194.502L226.806 194.03H227.843L229.947 192.961H232.773L233.809 193.401L234.72 194.345H235.474L236.667 195.572L237.986 196.485L239.054 196.799L239.494 196.013V195.415L239.933 194.943H240.844L241.598 194.628L241.723 193.716L242.194 193.244L243.231 193.401L243.984 193.716L244.707 193.558V192.646L245.178 191.733L246.371 190.947L247.125 190.034L246.811 188.807V187.58L247.564 186.951L248.601 186.793H249.637L250.548 186.353L251.145 185.881L252.621 186.793L253.845 186.951L255.478 186.479L256.358 185.881L256.954 184.811L257.111 183.71L257.708 182.955L258.744 182.797L259.058 182.042L259.812 181.413L261.163 181.098L262.356 181.413L263.078 182.325L263.675 182.797L264.272 182.64L264.586 181.727L265.025 181.098L265.339 179.871L265.936 179.556L267.569 179.871H268.919L269.673 178.958L269.359 177.731L267.883 175.875L267.569 174.962L268.323 174.176V172.949L269.516 172.477L271.023 173.421L272.342 174.49L273.85 175.246L275.326 176.189L277.147 176.63L278.466 177.102L278.78 178.172L279.063 179.399H280.131L281.45 178.486L282.8 176.945L284.59 176.473L287.574 175.938Z" fill="white" fill-opacity="0.1" stroke="white" stroke-opacity="0.4" stroke-width="0.6" stroke-linecap="round" stroke-linejoin="round"/>
<path d="M136.772 109.891L137.714 110.709L139.095 111.37L147.355 113.824L148.171 114.17L148.517 114.517L148.58 115.177V115.775L148.485 116.562L148.423 126.505L149.584 129.935L150.244 130.879L150.495 131.823L150.746 135.819L151.186 138.147L151.312 139.185V140.066L150.841 142.238L150.432 142.93L149.49 143.339L149.208 143.559L149.019 144.472L149.051 145.416L148.831 146.422L148.705 146.674L145.69 149.569L144.497 150.544L144.277 150.67L141.922 151.268L141.419 151.488L140.477 151.583L139.849 151.677L139.347 151.897L138.624 152.653L138.028 153.502L137.117 155.107L136.897 155.799L135.955 155.012L134.071 154.383L128.952 154.163L125.906 152.999L124.838 152.936L121.101 154.32L117.269 156.806L116.202 157.058L115.762 156.712L114.789 155.39L114.286 154.95L112.088 154.603L109.732 155.484L107.157 154.289H105.681L103.64 154.069L100.123 152.558L99.0236 154.289L98.1129 155.799L97.1707 156.177L95.8831 155.61L94.4071 154.069L93.6848 152.558V151.237L94.2187 149.884L94.0303 148.562L91.832 147.209L89.9791 145.321L89.4139 144.157L89.2568 142.835L88.5031 141.86L86.2734 141.482V135.378L86.8387 133.459L88.1263 130.595L89.0684 128.298L89.1312 123.232L90.4816 122.163L91.6436 120.684L93.6534 118.387L94.9724 118.261L96.1344 117.632L98.5211 115.681L99.5889 114.831L100.751 114.579L103.232 114.202L105.964 113.73L107.848 113.226L109.387 111.527L110.486 106.682L114.537 109.167L117.112 110.143L124.869 111.716L126.597 111.873L127.79 111.59L128.763 111.213L133.286 108.412L134.134 108.003L134.981 107.814L135.61 108.318L136.772 109.891Z" fill="white" fill-opacity="0.1" stroke="white" stroke-opacity="0.4" stroke-width="0.6" stroke-linecap="round" stroke-linejoin="round"/>
<path d="M194.964 30.599L192.828 35.067L187.678 37.1752L186.924 39.0946L181.209 44.3179L173.075 51.0515L165.506 56.9984L163.465 55.4566L159.602 53.5372L155.363 51.2402L153.133 48.1566L150.558 44.3179L144.811 40.2588L142.142 40.4476L138.059 38.245L137.211 37.9304L108.068 37.8675L107.723 41.423L99.7145 41.9894L99.1492 41.6118L88.6916 29.5291L87.6238 28.5537L86.9957 28.1446L86.4933 28.711L85.6454 29.3403L84.6718 29.8438L84.295 30.1899L84.0751 30.7248L83.5413 31.6373L83.1958 32.0778L82.8818 32.2981L73.2721 37.7731L72.9894 37.9304L71.2308 39.4093L70.8853 39.8183L70.6341 40.2588L70.4771 40.8252L70.3515 41.0769L70.0688 41.2972L67.9019 42.4299L67.3681 42.8705L67.054 43.4998L66.3945 45.2618L66.1747 45.6394L65.7978 46.0485L65.0755 46.1743L64.2904 46.2058L63.4111 46.3316L62.7202 46.6148L61.6211 47.4329L60.6475 47.7476L59.674 47.9364L51.3833 48.1252L51.2891 47.9364L52.451 45.9541L52.9535 43.0278L53.0791 37.2381L53.3617 36.6403L54.084 34.2804L54.9634 32.1408L55.1832 28.5537L55.56 27.4839L56.2823 26.8231L58.1666 26.3826L58.9831 25.8477L59.2972 25.3128L59.517 24.6835L61.5897 15.6844L61.8409 13.5762L62.2492 12.5693L62.9401 11.5624L63.8822 10.6499L64.9813 9.98912L66.1119 9.7374L67.8077 10.0835L68.373 10.115L68.9697 10.0206L69.4721 9.76886L70.9795 8.69904L71.5448 8.41585L72.1729 8.28999L72.801 8.41585L73.2721 8.7305L73.6489 9.10809L74.277 10.0206L75.1249 10.9645L76.1613 11.468L77.3232 11.5939L78.5166 11.4051L79.2389 10.9645L79.6471 10.9016L80.0554 10.996L80.7149 11.2792L81.0289 11.3107L81.4058 11.2163L83.4156 10.3038L84.1379 10.2408L85.928 10.6814H86.3677L87.6238 10.4296L88.4089 10.4926L90.7328 11.2477L92.3659 11.3421L92.8055 11.468L93.9989 12.0344L94.8154 12.2546L95.6005 12.1917L96.3228 11.94L97.0451 11.4995L98.1757 10.4611L98.7723 10.0835L99.5575 9.95765L101.724 10.3982L102.478 10.3352L103.075 10.0206L103.577 9.58007L104.802 7.78654L105.43 7.22017L106.184 6.87405L106.937 6.93698L107.44 7.34603L107.723 7.88094L108.068 8.38439L108.696 8.66757L109.45 8.63611L110.172 8.44732L112.308 7.56629L113.093 7.37749L114.726 7.31456L117.144 7.72361L117.96 7.69215L123.425 6.81112L124.492 6.40207L124.838 6.18181L125.058 5.86715V5.48957L124.901 5.14345L124.084 4.32535L123.77 3.63311L123.864 2.94087L124.335 2.40596L125.058 2.21717L125.78 2.43743L126.251 2.94087L126.628 3.57018L127.162 4.07363L127.539 4.19949L127.916 4.16802L128.261 4.0107L128.606 3.75897L128.826 3.44432L128.952 3.0982L129.109 2.34303L129.454 1.83958L129.957 1.49347L131.119 1.02148L131.684 1.30467L132.344 2.02838L132.783 2.90941L133.317 3.57018L134.259 3.72751L135.798 3.34992L144.497 3.97923L145.094 3.9163L146.789 3.44432H147.292L147.763 3.57018L149.176 4.26242L149.742 4.35682L150.307 4.32535L152.442 3.72751H152.976L155.049 4.13656L155.583 4.16802L156.148 4.10509L156.682 3.94777L157.184 3.72751L158.503 2.90941L159.006 2.72062L159.979 2.65768L163.214 3.94777L163.622 4.19949L163.811 4.60854V5.17492L163.528 6.21327L163.622 6.62232L164.093 6.84258L166.04 6.65379L166.543 6.87405L166.7 7.31456L166.794 8.25852L167.045 8.66757L167.579 8.9193L168.804 9.01369L169.369 9.10809L169.777 9.35981L170.657 10.4926L171.002 10.8387L172.227 11.6883L173.954 13.7335L176.969 16.5025L178.665 17.4779L179.01 17.824L179.89 18.8938L180.361 19.177L181.334 19.5861L181.805 19.8378L182.119 20.1839L182.151 20.5615L181.837 21.3796L181.742 21.8516L181.837 22.1977L182.339 22.8585L182.559 23.3304L182.59 23.771L182.339 24.7149L182.528 25.5645L183.375 26.0365L185.385 26.6343L185.794 26.886L186.61 27.5153L186.924 27.8615L187.175 28.302L187.615 29.7179L187.866 30.2528L188.18 30.6933L188.589 31.1024L189.06 31.3856L189.468 31.5114L189.876 31.4485L190.284 31.3227L191.132 30.8192L191.949 30.1899L192.294 29.8123L193.205 28.4908L193.582 28.1132L194.022 27.8615L194.461 27.7356L194.932 27.7041L195.403 27.7671L195.309 28.4278L194.807 30.0326L194.964 30.599Z" fill="white" fill-opacity="0.1" stroke="white" stroke-opacity="0.4" stroke-width="0.6" stroke-linecap="round" stroke-linejoin="round"/>
<path d="M20.4504 111.182L18.943 109.073L17.467 107.72L16.6191 107.123L15.6141 106.651L14.515 106.462L13.6671 106.21L11.5316 105.077L11.1861 104.7H9.49031L8.04571 104.511L6.75814 104.605L5.62758 105.423L6.06724 105.958L6.66393 106.116L6.28707 106.902L5.62758 107.217L6.28707 107.941L5.97303 108.696L5.78461 108.727L5.62758 109.042L4.96809 108.601L1.54503 104.322L0.728516 103.567L9.14486 101.301L11.6258 99.2562L18.7546 96.2041L18.8174 96.267L19.8537 98.6584L20.1678 99.6024L20.1992 99.8856L20.2306 101.144L20.3876 101.616L21.2041 102.969L21.3611 103.441L21.4239 103.945L20.4504 111.182Z" fill="white" fill-opacity="0.1" stroke="white" stroke-opacity="0.4" stroke-width="0.6" stroke-linecap="round" stroke-linejoin="round"/>
<path d="M72.1738 92.3971L73.8068 90.9497L74.9688 90.6665L87.4677 90.5721L88.2214 90.7295V91.2014L88.2528 91.8937L88.4098 92.4915L88.7553 92.8691L89.3206 93.1208L89.666 93.4355L89.9486 94.2536L90.2941 94.6312L90.5139 94.7885L91.7701 95.3549L92.6494 95.9527L92.932 96.3932L92.9949 96.6764L93.0263 97.3687L93.2775 98.0609L94.1882 98.7846L95.4758 98.3756L98.1766 98.2812L99.5898 98.407L100.72 99.1307L101.474 99.4139L101.945 99.4768L105.305 99.1622L105.965 99.2251L106.404 99.3195L106.75 99.7915L107.001 102.97L107.315 104.102L108.634 105.581L110.487 106.682L109.388 111.528L107.849 113.227L107.127 111.402L105.965 110.427L99.2129 107.721L97.5799 106.997L96.3865 105.77L95.4444 105.644L94.0312 106.116L92.9635 106.242L90.4197 104.385L90.2313 104.543L89.5718 104.889L89.1321 105.266L88.9123 105.801L88.6611 110.269L88.5354 110.899L88.2842 111.371L85.5206 114.14L85.3008 114.266L84.0446 114.863L82.3174 115.304L78.0464 115.744L77.3555 115.776L71.797 114.769L71.0433 114.549L70.5722 114.329L70.0069 113.762L69.3474 113.29L68.8764 113.07L67.1805 112.504L65.4847 112.315L64.9508 112.346L62.2815 112.913L61.5592 112.85L61.1195 112.598L60.2088 111.843L59.7377 111.717L55.4039 111.497L53.1428 111.685L52.4833 111.906L51.8552 112.913L50.7875 112.566L48.2437 111.402L47.6157 111.025L47.333 110.584L47.2702 109.986L47.8669 109.137L48.5892 108.319L48.8718 107.815L48.9974 107.375L48.8718 106.745L48.7462 106.494L48.3694 106.148L47.8983 105.927L47.5214 105.581L47.4272 105.361L47.5214 104.48L47.6785 103.882V103.41L47.3958 103.032L46.9876 102.718L46.4851 102.498L46.2967 102.34L46.1083 101.774L46.014 101.145L46.1711 100.295L46.2025 98.9734L46.0454 98.3756L45.7 98.0294L44.9777 97.7777L44.7893 97.6519L44.381 97.2428L44.3496 96.9911L44.5694 95.7954L44.8835 94.9773L45.3546 94.2221L46.2967 93.6872L58.5758 90.1631L59.0468 90.4777L59.6435 90.8553L60.0832 91.0127L60.8997 91.0756L61.6534 90.9812L62.4385 90.698L62.8781 90.7924L64.6054 92.1769L64.8252 92.3027L65.6731 92.6489L65.9872 92.8062L66.2698 93.3411L66.3326 93.9389L66.5838 94.4109L66.8037 94.5682L67.4004 94.7885L67.84 94.8514L68.4995 94.82L69.0962 94.6626L71.5457 93.3726L71.954 93.0579L72.1738 92.3971Z" fill="white" fill-opacity="0.1" stroke="white" stroke-opacity="0.4" stroke-width="0.6" stroke-linecap="round" stroke-linejoin="round"/>
<path d="M74.5603 165.27H72.4877L50.3162 165.176L49.8138 164.421L49.5625 163.854L49.5939 162.375L50.4733 161.557L51.7608 160.897L53.0484 159.89L52.7658 159.732L52.2319 159.323L51.9807 159.197L52.6087 158.568L53.0798 157.782L53.017 157.121L51.9807 156.995L52.1063 157.844L51.855 158.883L51.3212 159.575L50.5675 159.512L50.222 160.613L49.4369 161.369L48.432 161.652L47.4584 161.337L46.5477 160.393L46.3279 159.449L46.7676 157.372L46.8618 156.082L46.9874 155.548L47.4584 154.855L49.2485 152.684L49.5625 151.96L49.8766 152.149L50.6617 152.527L50.8501 152.464L50.5675 151.583L52.3575 151.268L52.4203 152.307L52.7972 153.282L53.3624 153.88L54.1161 153.754L53.7393 152.558L53.6451 151.237L53.4253 150.167L52.6716 149.789L52.9228 149.097L54.0219 144.188L54.1161 143.339L53.017 144.975L52.5459 146.013L52.1377 148.185L51.6038 149.475L50.9443 150.356L50.2534 150.167H49.8766L49.3741 150.859L48.4634 151.142L47.427 151.268L46.4221 151.583L45.8882 152.055L45.6998 152.495L45.637 152.936L45.3544 153.439L45.0717 153.691L44.5064 154.006L44.161 154.32L43.6585 155.264L43.2817 155.61L42.7478 155.39L42.5908 154.855V154.226L42.4966 153.66L42.0255 153.439L41.3974 152.967L41.1148 151.929L41.1776 150.828L41.5544 150.167L41.2404 149.443L41.0206 148.625L40.8321 146.926L40.8949 146.045L41.0834 145.51L41.3974 145.164L42.5594 144.251L43.1561 144L43.8155 143.968L45.2915 144.157L46.0138 144.377L46.4849 144.786L46.4221 145.51L47.1444 144.849L47.7097 144.063L48.432 143.654L49.5625 144.063V142.898L49.9394 142.395L50.5989 142.049L51.2898 141.514L50.6617 141.734L49.9708 141.892L49.3427 141.766L48.8402 141.199L51.1327 139.752L51.9807 138.997L53.2996 137.36L54.0219 136.731L55.655 136.259L56.4401 135.252L57.0367 135.001L57.4764 135.221L57.8847 135.598L58.2929 135.819L58.7954 135.567L59.1094 135.315L59.9573 134.906L63.2234 135.001L63.506 135.064L64.0713 135.441L65.5473 136.385L66.2382 136.983L66.5836 137.423L66.9291 137.99L67.1489 139.123L67.1803 139.815L67.1175 140.381L66.9605 140.79L66.4266 141.545L66.2382 141.954L66.2696 142.395L67.3059 143.748L67.934 144.314L68.2795 144.849L68.8448 148.436L68.8134 149.254L68.6563 149.663L68.4051 150.041L67.8398 150.828L67.0861 151.457L66.8035 151.803L66.6151 152.527L66.5836 153.282L66.6465 153.723L66.8349 154.194L67.3374 154.698L68.939 156.051L69.7555 156.554L70.1323 156.838L70.4464 157.247L70.6662 157.939L70.886 159.669L71.0745 160.425L71.3571 160.928L71.7654 161.463L73.4298 162.973L74.1207 163.886L74.4033 164.893L74.5603 165.27ZM107.849 113.227L105.965 113.73L103.232 114.202L100.751 114.58L99.5895 114.831L98.5218 115.681L96.1351 117.632L94.9731 118.261L93.6541 118.387L91.6443 120.684L90.4823 122.163L89.1319 123.233L87.5303 124.239L83.7304 124.114L81.2494 123.988L80.1817 124.491L79.2396 125.467L78.2032 125.844L73.8694 125.089L73.5868 124.869V124.586L73.1471 124.554L70.5406 124.774L67.463 125.467L65.8299 125.592L65.3275 125.844L64.7308 126.348L63.349 128.015L60.8053 131.854L60.2714 133.616L59.5491 134.623L57.131 134.529L55.7492 133.994L55.8434 132.861L55.0583 133.27L54.7442 134.025L54.9013 134.843L55.4665 135.378L54.8384 135.724L54.3046 135.693L53.8021 135.504L53.2054 135.378L52.7972 135.536L52.6087 135.945L52.5145 136.417L52.3575 136.826L51.0385 139.185L50.5675 139.72L50.065 139.941L48.9659 140.224L48.3378 140.633L47.8981 141.199L47.27 142.426L46.7676 142.961L45.6056 143.339L44.5378 143.119L43.4387 142.741L42.2139 142.615L43.4073 140.444L43.4387 140.067L44.2866 139.815L45.6998 138.242L45.0403 138.462L44.3808 139.469L43.8155 139.72L42.685 139.752L42.2453 139.846L41.8685 140.067L42.4652 140.79L42.4024 141.262L41.5544 142.269L41.3974 142.678L41.2718 143.433L40.9892 143.874L39.9842 145.038L39.7644 145.51L39.5446 146.957L39.7644 151.96H39.4504L39.1677 141.86L38.9165 140.35L38.0686 137.801L37.6289 136.92L38.0058 136.479L39.4504 136.007L39.7016 135.756L39.733 135.473L39.2933 134.78V134.34L39.4504 134.088L40.7379 132.955L40.9578 132.546L40.9892 132.232L40.8007 132.043L40.4239 131.697L40.2669 131.476L40.9892 128.456L43.5329 121.03L43.9726 120.841L45.637 120.715L46.1709 120.558L46.5791 120.18L47.0502 119.583L47.4584 119.236L48.2436 118.953L48.6832 118.67L49.5311 117.789L50.8501 116.027L51.1327 115.586L51.4782 114.485L51.855 112.912L52.4831 111.905L53.1426 111.685L55.4037 111.496L59.7375 111.716L60.2086 111.842L61.1193 112.597L61.559 112.849L62.2813 112.912L64.9506 112.346L65.4845 112.314L67.1803 112.503L68.8762 113.069L69.3472 113.289L70.0067 113.761L70.572 114.328L71.0431 114.548L71.7968 114.768L77.3553 115.775L78.0462 115.744L82.3172 115.303L84.0444 114.863L85.3006 114.265L85.5204 114.139L88.284 111.37L88.5352 110.898L88.6609 110.269L88.9121 105.801L89.1319 105.266L89.5716 104.888L90.2311 104.542L90.4195 104.385L92.9632 106.241L94.031 106.115L95.4442 105.643L96.3863 105.769L97.5797 106.996L99.2127 107.72L105.965 110.426L107.127 111.402L107.849 113.227Z" fill="white" fill-opacity="0.1" stroke="white" stroke-opacity="0.4" stroke-width="0.6" stroke-linecap="round" stroke-linejoin="round"/>
<path d="M109.733 155.485L107.597 157.09L105.996 158.821L105.43 159.702L104.897 160.803L104.52 161.967L104.331 163.037L104.237 165.114L103.421 165.397L94.596 165.366L78.7997 165.303L74.5601 165.271L74.4031 164.894L74.1204 163.887L73.4295 162.974L71.7651 161.464L71.3568 160.929L71.0742 160.425L70.8858 159.67L70.6659 157.94L70.4461 157.247L70.1321 156.838L69.7552 156.555L68.9387 156.052L67.3371 154.699L66.8346 154.195L66.6462 153.723L66.5834 153.283L66.6148 152.528L66.8032 151.804L67.0859 151.458L67.8396 150.829L68.4048 150.042L68.6561 149.664L68.8131 149.255L68.8445 148.437L68.2792 144.85L67.9338 144.315L67.3057 143.749L66.2693 142.396L66.2379 141.955L66.4264 141.546L66.9602 140.791L67.1173 140.382L67.1801 139.816L67.1487 139.123L66.9288 137.991L66.5834 137.424L66.2379 136.984L65.547 136.386L64.071 135.442L63.5058 135.064L63.2231 135.001L59.9571 134.907L60.3339 134.655L59.5488 134.624L60.2711 133.617L60.805 131.855L63.3487 128.016L64.7305 126.348L65.3272 125.845L65.8297 125.593L67.4627 125.467L70.5403 124.775L73.1469 124.555L73.5865 124.586V124.87L73.8692 125.09L78.203 125.845L79.2393 125.467L80.1814 124.492L81.2492 123.989L83.7301 124.114L87.53 124.24L89.1317 123.233L89.0688 128.299L88.1267 130.596L86.8392 133.46L86.2739 135.379V141.483L88.5036 141.861L89.2573 142.836L89.4143 144.158L89.9796 145.322L91.8324 147.21L94.0307 148.563L94.2192 149.885L93.6853 151.238V152.559L94.4076 154.069L95.8836 155.611L97.1712 156.178L98.1133 155.8L99.024 154.29L100.123 152.559L103.64 154.069L105.682 154.29H107.158L109.733 155.485Z" fill="white" fill-opacity="0.1" stroke="white" stroke-opacity="0.4" stroke-width="0.6" stroke-linecap="round" stroke-linejoin="round"/>
<path d="M153.134 48.1555L149.083 51.9943L147.042 53.3473L144.467 54.3228L142.991 54.8891L142.614 64.5176L140.761 67.3809L149.272 71.8175L153.511 71.2197L151.847 78.5197L150.905 84.2778L153.103 85.3791L149.083 86.5748L143.336 87.3614L139.85 88.683L141.326 93.8748L143.525 98.8463L141.672 102.685L139.474 104.195L138.72 108.412L136.773 109.891L135.611 108.317L134.983 107.814L134.135 108.003L133.287 108.412L128.765 111.212L127.791 111.59L126.598 111.873L124.871 111.716L117.114 110.142L114.539 109.167L110.487 106.681L108.635 105.58L107.316 104.101L107.002 102.968L106.75 99.7903L106.405 99.3183L105.965 99.2239L105.306 99.1609L101.945 99.4756L101.474 99.4127L100.721 99.1295L99.5901 98.4058L98.1769 98.2799L95.4762 98.3743L94.1886 98.7834L93.2778 98.0597L93.0266 97.3674L92.9952 96.6752L92.9324 96.392L92.6498 95.9515L91.7704 95.3536L90.5143 94.7873L90.2944 94.6299L89.949 94.2523L89.6664 93.4343L89.3209 93.1196L88.7556 92.8679L88.4102 92.4903L88.2532 91.8924L88.2218 91.2002V90.7282L87.4681 90.5709L74.9691 90.6653L73.8072 90.9485L72.1742 92.3959L71.0436 91.7981L69.9131 91.3575L69.3792 91.0114L69.128 90.7597L68.7825 90.2248L68.4999 89.4696L68.3428 88.4942L68.123 87.9593L67.8404 87.5188L66.3644 85.6938L66.0817 85.2533L65.5793 83.9632L65.4222 82.9877L65.5165 82.2955L65.6107 80.974L65.4851 80.2503L65.2652 79.7153L64.9198 79.149L64.4801 78.1421L64.1347 77.8274L63.852 77.9533L63.1925 78.3938L62.9413 78.4253L62.7215 78.2994L62.5331 77.9847L62.376 77.324L62.0934 74.7753L61.905 74.3033L61.4025 73.9572L60.6488 73.9257L59.8637 74.146L59.267 74.1774L56.8489 73.5796H56.472L55.9382 73.7998L55.5927 74.1774L55.153 74.8382L54.6506 75.4046L54.0853 76.2856L53.7399 76.6317L52.9548 77.7016L52.6407 78.4882L52.5151 79.0546L52.3267 79.5895L52.044 80.03L49.7515 82.4528L49.4689 82.8933L48.8094 83.68L48.4011 83.9946H47.8987L47.6474 83.8373L47.4276 83.5541L47.1764 83.1136L47.1136 82.2326L47.3648 81.6347L47.4904 81.1942L47.2706 80.6278L46.9251 80.2188L46.6425 80.03L45.826 79.6209L45.3863 79.3378L45.0095 78.9916L44.3814 78.1421L44.0673 77.4813L43.7533 77.0408L43.4393 76.8205L42.8426 76.5688L42.4343 76.4429L42.1203 75.8766L41.9947 74.8697L42.2459 72.6356L42.6227 71.377L43.5335 69.552L43.7533 68.5451V67.8843L43.5021 67.2865L43.2508 66.9089L41.712 65.6503L41.4922 65.5244L44.821 61.0249L51.4787 49.7603L51.6986 49.2254L51.6358 48.6905L51.3845 48.1241L59.6753 47.9353L60.6488 47.7465L61.6223 47.4318L62.7215 46.6137L63.4124 46.3306L64.2917 46.2047L65.0768 46.1732L65.7991 46.0474L66.1759 45.6383L66.3958 45.2607L67.0553 43.4987L67.3693 42.8694L67.9032 42.4288L70.0701 41.2961L70.3527 41.0758L70.4783 40.8241L70.6354 40.2577L70.8866 39.8172L71.232 39.4082L72.9907 37.9293L73.2733 37.772L82.883 32.297L83.1971 32.0767L83.5425 31.6362L84.0764 30.7237L84.2962 30.1888L84.6731 29.8427L85.6466 29.3392L86.4945 28.7099L86.997 28.1436L87.6251 28.5526L88.6928 29.528L99.1504 41.6107L99.7157 41.9883L107.724 41.422L108.069 37.8664L137.212 37.9293L138.06 38.2439L142.143 40.4465L144.812 40.2577L150.559 44.3168L153.134 48.1555Z" fill="white" fill-opacity="0.1" stroke="white" stroke-opacity="0.4" stroke-width="0.6" stroke-linecap="round" stroke-linejoin="round"/>
<path d="M247.379 85.8831L247.505 86.2606L252.844 93.4348L253.189 94.2843L253.44 95.5115V95.8891L253.346 96.361L249.452 106.273L245.275 112.692L244.647 113.384L244.019 113.698L236.388 114.674L234.189 114.705L220.434 112.157L219.901 112.345L219.492 112.566L206.145 122.226L205.58 122.509L191.637 122.729L189.124 122.32L166.984 113.856L166.136 113.384L165.226 112.66L164.755 111.653L162.556 109.576L160.452 110.237L159.667 110.646L158.756 111.464L157.249 113.289L154.799 115.02L148.487 116.562L148.581 115.775V115.177L148.519 114.517L148.173 114.17L147.357 113.824L139.097 111.37L137.716 110.709L136.773 109.891L138.72 108.412L139.474 104.196L141.672 102.686L143.525 98.8468L141.327 93.8753L139.851 88.6835L143.337 87.3619L149.084 86.5753L153.104 85.3796L150.905 84.2783L151.847 78.5202L153.512 71.2202L149.272 71.818L140.762 67.3814L142.615 64.5181L142.991 54.8896L144.467 54.3233L147.043 53.3478L149.084 51.9948L153.135 48.156L155.365 51.2397L159.604 53.5366L163.467 55.456L165.508 56.9978L173.077 51.0509L181.21 44.3173L186.926 39.094L187.68 37.1746L192.83 35.0664L194.966 30.5984L195.217 30.7557L195.719 30.9445L195.97 31.1333L196.096 31.4165L196.285 31.5423L196.724 31.7626L197.195 32.1087L197.541 32.1716L197.886 32.0772L199.268 31.3221L199.551 31.2591H200.524L201.089 31.1333L202.628 30.441L205.298 29.8747L206.271 29.4971L206.899 29.56L206.993 30.3152L206.145 31.9199L206.051 32.738L206.554 33.0841L208.438 32.3604L209.192 32.3919L209.443 32.6751L209.851 33.3988L210.102 33.682L211.516 34.6574L211.798 35.035L211.924 35.444L211.987 36.3565L212.049 36.7656L212.772 38.5591L213.086 39.1255L213.463 39.6289L213.934 40.1009L215.221 41.0763L215.504 41.4854L215.63 41.9259L215.598 42.3664L215.378 43.2789V43.7194L215.504 44.0655L215.724 44.3802L216.635 45.4815L217.106 46.2996L217.325 47.1806L217.357 48.219L216.949 49.572L217.011 50.0125L217.294 50.3901L217.639 50.6733L218.425 51.1138L218.833 51.4599L219.178 51.806L219.744 52.6871L219.963 53.1276L220.026 53.5052L219.932 53.8827L219.178 55.1099L218.99 55.5504L218.927 55.9909L218.99 56.4629L219.492 57.7845L220.246 57.753L221.785 57.4698L222.507 57.5327L222.884 57.6586L223.826 58.3508L224.203 58.5082L225.365 58.8228L225.993 59.2004L226.558 59.7038L226.904 60.3332L227.029 61.0883L226.747 63.0706V63.5426L226.841 63.9831L227.029 64.4551L227.312 64.7068L228.882 65.0844L229.604 64.99L230.39 64.5181L231.049 63.9831L231.803 63.5426L232.588 63.4482L233.404 63.8258L233.718 64.2034L233.875 64.6754L234.095 66.1543L234.252 66.5004L234.755 67.1926L235.006 67.5702L235.1 67.9792V69.7728L235.289 70.6223L235.697 71.4404L236.325 72.1012L239.371 74.2094L239.999 74.8702L240.345 75.7512L240.062 76.4749L239.214 76.6322L237.487 76.4434L236.953 76.821L237.267 77.4818L238.429 78.6775L238.869 79.0236L239.34 79.1809H239.811L240.91 78.9607H241.444L241.946 79.118L242.417 79.4326L242.669 79.8102L242.794 80.2193L242.826 80.6283L242.543 81.9813L242.574 82.3904L242.794 83.0197L244.082 83.4288L245.997 85.2852L247.379 85.8831Z" fill="white" fill-opacity="0.1" stroke="white" stroke-opacity="0.4" stroke-width="0.6" stroke-linecap="round" stroke-linejoin="round"/>
<path d="M72.1745 92.3968L71.9547 93.0576L71.5465 93.3723L69.0969 94.6623L68.5002 94.8197L67.8407 94.8511L67.4011 94.7882L66.8044 94.5679L66.5846 94.4106L66.3333 93.9386L66.2705 93.3408L65.9879 92.8059L65.6739 92.6486L64.8259 92.3024L64.6061 92.1766L62.8789 90.7921L62.4392 90.6977L61.6541 90.9809L60.9004 91.0753L60.0839 91.0124L59.6442 90.855L59.0475 90.4774L58.5765 90.1628L46.2974 93.6869L45.3553 94.2218L44.8842 94.977L44.5702 95.7951L44.3503 96.9908L44.3818 97.2425L44.79 97.6516L44.9784 97.7774L45.7007 98.0291L46.0462 98.3753L46.2032 98.9731L46.1718 100.295L46.0148 101.144L46.109 101.774L46.2974 102.34L46.4858 102.497L46.9883 102.717L47.3966 103.032L47.6792 103.41V103.882L47.5222 104.48L47.428 105.361L47.5222 105.581L47.899 105.927L48.3701 106.147L48.7469 106.493L48.8726 106.745L48.9982 107.374L48.8726 107.815L48.5899 108.318L47.8676 109.136L47.2709 109.986L47.3338 110.584L47.6164 111.024L48.2445 111.402L50.7882 112.566L51.856 112.912L51.4791 114.486L51.1337 115.587L50.851 116.027L49.5321 117.789L48.6841 118.67L48.2445 118.954L47.4594 119.237L47.0511 119.583L46.5801 120.181L46.1718 120.558L45.6379 120.716L43.9735 120.842L43.5338 121.03L40.9901 128.456L40.2678 131.477L40.4248 131.697L40.8017 132.043L40.9901 132.232L40.9587 132.547L40.7389 132.956L39.4513 134.088L39.2943 134.34V134.781L39.7339 135.473L39.7025 135.756L39.4513 136.008L38.0067 136.48L37.6298 136.92L37.1274 135.945L36.6877 135.379L36.0282 135.064L34.6778 134.749L34.1754 134.309L33.9241 133.522L33.4845 130.69L33.1704 129.809L32.7308 129.148L31.7886 128.142L31.349 127.89L31.0035 127.827L30.7837 127.607L30.7209 126.914L30.7837 126.379L31.0349 125.341L31.0977 124.743L30.8465 123.862L30.2184 122.95L28.6168 121.314L24.9739 119.583L24.44 118.985L24.126 118.293L22.3359 115.555L20.9856 111.937L20.4517 111.182L21.4252 103.945L21.3624 103.441L21.2054 102.969L20.3889 101.616L20.2319 101.144L20.2005 99.8856L20.1691 99.6024L19.855 98.6584L18.8187 96.2671L18.7559 96.2042L19.1955 96.0154L20.9542 94.5679L29.0565 84.8451L30.6581 82.4223L34.2068 78.4262L41.2727 65.7771L41.4926 65.5254L41.7124 65.6513L43.2512 66.9099L43.5024 67.2875L43.7537 67.8853V68.5461L43.5338 69.553L42.6231 71.378L42.2463 72.6366L41.995 74.8706L42.1206 75.8775L42.4347 76.4439L42.8429 76.5697L43.4396 76.8215L43.7537 77.0417L44.0677 77.4822L44.3818 78.143L45.0098 78.9926L45.3867 79.3387L45.8264 79.6219L46.6429 80.0309L46.9255 80.2197L47.2709 80.6288L47.4908 81.1952L47.3652 81.6357L47.1139 82.2335L47.1767 83.1145L47.428 83.5551L47.6478 83.8383L47.899 83.9956H48.4015L48.8098 83.6809L49.4692 82.8943L49.7519 82.4538L52.0444 80.0309L52.327 79.5904L52.5155 79.0555L52.6411 78.4891L52.9551 77.7025L53.7402 76.6327L54.0857 76.2866L54.651 75.4055L55.1534 74.8391L55.5931 74.1784L55.9385 73.8008L56.4724 73.5805H56.8493L59.2674 74.1784L59.8641 74.1469L60.6492 73.9267L61.4029 73.9581L61.9053 74.3042L62.0938 74.7762L62.3764 77.3249L62.5334 77.9857L62.7219 78.3003L62.9417 78.4262L63.1929 78.3947L63.8524 77.9542L64.135 77.8284L64.4805 78.143L64.9202 79.1499L65.2656 79.7163L65.4854 80.2512L65.611 80.9749L65.5168 82.2964L65.4226 82.9887L65.5796 83.9641L66.0821 85.2542L66.3647 85.6947L67.8407 87.5197L68.1234 87.9602L68.3432 88.4951L68.5002 89.4706L68.7829 90.2257L69.1283 90.7606L69.3796 91.0124L69.9134 91.3585L71.044 91.799L72.1745 92.3968Z" fill="white" fill-opacity="0.1" stroke="white" stroke-opacity="0.4" stroke-width="0.6" stroke-linecap="round" stroke-linejoin="round"/>
<path d="M186.672 169.55L187.802 169.046L188.65 168.952L188.839 168.763L189.027 168.259L189.372 167.882L189.624 167.819L190.158 167.882H190.723L190.943 167.976L191.1 168.165L191.037 168.48L190.848 169.015V169.518L190.786 169.77L190.44 170.242L190.346 170.494V170.808L190.472 171.091L190.817 171.375L191.131 171.406L191.414 171.343L191.853 171.06L192.387 170.903L192.984 170.997L193.738 171.28L194.272 171.437L194.491 171.658L194.24 172.13L193.298 173.074L193.047 173.514L192.984 173.797V174.741L192.921 175.025L192.356 175.874L192.293 176.094L192.387 176.346L192.701 176.503L193.361 176.661L193.989 176.629L195.245 176.409L195.905 176.378L196.187 176.472L196.344 176.629V176.975L196.219 177.227L195.779 177.856L195.716 178.108L195.842 178.328L196.407 178.706L196.564 178.926L196.595 179.367L196.407 180.248L196.438 180.562L196.658 180.846L197.161 181.192L197.883 181.475L198.103 181.632L198.26 181.915L198.417 182.734L198.574 183.048L198.951 183.331L199.265 183.394H199.893L200.113 183.52L200.27 183.772L200.395 184.118L200.458 185.251L200.395 185.628L200.427 186.446L200.301 187.076L200.333 187.39L200.552 187.799L200.615 188.649L200.678 189.153L201.055 189.908L201.714 190.694L202.468 191.261L202.437 192.236L202.562 192.488L203.347 192.991L203.913 193.589L204.289 194.093L204.635 194.439L204.761 194.659L204.666 194.974L204.478 195.414L204.572 195.634L205.232 195.855L205.546 196.169L205.765 197.774L205.42 198.498L205.514 198.812L205.765 199.159L205.954 199.977L206.111 200.417L206.582 200.952L207.273 201.424L207.493 201.644L207.713 202.871L207.901 203.249L207.838 203.595L207.618 203.721L207.053 203.69L206.927 203.91L207.304 204.319V204.602L206.865 205.294L206.676 205.798L206.833 206.49L207.179 206.868L207.461 207.654L207.524 207.969L207.398 209.888L207.336 210.171L207.084 210.612L207.022 210.895L207.116 211.21L207.461 211.65L207.838 211.965L208.498 212.28L209.032 212.5L209.691 212.594H210.853L211.418 212.5L212.046 212.217L212.36 212.154L213.02 212.468L213.428 213.475L213.271 214.293L210.979 213.664L194.523 213.066L158.439 212.909L140.382 212.846L122.356 212.752L121.947 209.542L122.387 208L123.141 206.333V202.022L122.23 200.48L121.194 199.253L121.037 197.396L121.194 196.012L119.404 194.785L117.771 193.715L117.614 192.488L117.457 190.789L116.42 188.02L115.667 186.793L113.28 186.352L111.49 185.093L111.176 183.268L111.772 181.255L112.244 179.272L112.369 176.975L114.034 176.661L115.698 176.031L117.143 175.056L118.21 173.672L118.524 172.224L118.713 168.983L119.404 167.819L121.633 165.491L122.795 165.019L124.177 165.931L126.47 168.102L129.013 169.99L132.342 171.689L134.07 172.13L136.017 172.319L136.802 172.539L138.498 173.577L139.408 173.892L140.476 174.081L141.01 174.427L142.046 175.874L143.459 177.164L145.155 177.888L147.008 178.108L148.892 177.888L150.557 177.447L151.122 177.668L153.069 179.461L153.729 179.87L154.482 180.09L156.084 180.153L156.743 180.342L157.309 180.94L157.717 181.443L158.188 181.884L158.722 182.262L160.575 183.237L161.925 183.615L163.307 183.709L166.196 183.457L168.96 183.992L170.436 183.929L171.535 183.394L173.984 181.538L174.738 181.192H175.617L177.816 180.405L179.857 180.374L181.898 179.807L185.761 179.493L188.273 178.36L189.718 176.157L189.906 173.451L188.682 170.966L188.179 170.556L187.017 169.864L186.672 169.55Z" fill="white" fill-opacity="0.1" stroke="white" stroke-opacity="0.4" stroke-width="0.6" stroke-linecap="round" stroke-linejoin="round"/>
<path d="M84.7961 225.149L84.2937 225.118L80.2739 225.401L79.269 225.244L76.0971 224.174L74.3071 223.985L70.4444 224.677L69.6593 225.086L69.2196 225.023L68.1205 224.583L67.5866 224.489L67.0527 224.583L63.5354 226.502L59.4529 228.736L57.9141 229.366H55.3389L52.701 230.058L51.7588 230.089L44.8499 229.617L42.997 230.089L41.8351 230.876L41.4896 230.215L41.2384 229.523L41.0186 228.453L40.7045 228.107L39.9508 227.572L38.7575 226.408L38.255 225.747L38.0352 225.086V222.884L38.1608 222.412L38.6632 221.971L38.7575 221.499L39.1343 220.933L41.6781 219.423L42.7772 219.36L44.3474 219.517L46.0432 218.447L46.6085 217.975L46.8912 217.566L47.111 217.126L47.4564 216.622L49.4035 215.175L50.3456 216.276L51.0679 218.258L51.7588 218.73L51.7902 217.912L52.3241 217.252L53.2034 217L54.2084 217.22L55.9042 218.195L57.443 218.636L59.1388 219.423L60.0182 219.517L61.0231 219.014L62.2479 217.503L63.1586 217L64.3205 217.063L65.3255 217.44L66.3304 217.535L67.4924 216.811L68.0891 216.559L68.4973 217.031L68.7799 217.692L69.094 218.07L73.0509 216.591L73.9617 216.37L75.1864 216.276L75.9715 216.056L76.631 215.584L77.3847 215.175L78.5153 215.238L79.3946 215.71L80.745 216.78L80.7136 217.094L80.8392 218.479L81.5615 220.02L82.5036 221.373L83.0061 222.506L84.5763 224.835L84.7961 225.149ZM77.7616 210.172H77.4475V210.549L77.3847 210.77L76.8508 211.839L76.5996 212.186L76.4112 213.948L74.998 214.86L72.8939 215.238L72.36 215.458L71.3237 216.15L71.0097 216.276L70.4758 216.245L69.251 215.898H67.3039L66.7387 216.056L65.7651 216.465L65.2313 216.622H64.6032L62.9702 216.276L62.4049 216.402L61.714 216.905L61.2429 217L61.0859 217.252L60.8347 217.818L60.4892 218.416L60.0182 218.762L57.9455 218.07L56.2496 217.094L55.4645 216.433L55.1191 215.741L54.4596 215.458L53.9885 215.238L53.7373 214.86L53.8315 214.357L54.1456 213.885L54.6166 213.539L55.1191 213.444V213.035H54.334L53.8315 212.626L53.5489 211.997L53.3918 211.273L53.0464 215.584H52.6695L51.9787 214.671L50.1258 213.035L49.8746 211.997L49.2779 212.5L48.901 213.067L48.43 213.57L47.6135 213.759L47.0168 213.633L46.6085 213.287L46.3887 212.72L46.4201 211.997L47.1424 210.644L48.1787 209.605L48.8382 208.441L48.5242 206.585L48.3044 208.001L48.1787 208.41L47.8961 208.85L47.425 209.228L46.4201 210.172L45.9804 210.707L45.7606 211.399L45.6978 212.5L46.0746 214.357L45.949 215.206L44.4416 215.867L42.2119 217.755L40.4847 218.353L39.5426 217.786L39.1657 216.433L39.0715 214.671L39.3541 212.815L40.1706 210.99L41.4582 209.952L43.2483 210.549L43.3425 209.763L42.5888 209.196L41.5524 208.976L40.6417 209.291L39.6054 210.581L39.0087 211.021L38.3806 210.864L38.6946 210.455L38.7889 209.983L38.6946 209.542L38.3806 209.102L39.4798 207.56L39.6996 206.774L39.4483 205.861H39.0715L38.8517 206.459L38.4748 206.711L38.1608 206.49L38.0352 205.704L38.1608 205.074L38.4748 204.414L40.2649 201.676L40.4533 201.015L40.4219 200.355L40.1706 199.127L40.1078 198.53L40.2335 197.428L40.7359 195.257L40.8301 193.873L40.7673 192.992L40.5475 192.551L40.6103 191.355L40.7987 190.758L41.1442 190.349L41.9293 189.53L42.0863 189.027L42.84 187.768L44.6301 187.359L55.2133 187.454L84.1052 187.737L83.6342 188.555L82.7549 189.53L82.5036 190.16L82.5664 190.6L82.9119 190.789L83.6342 191.072L83.9168 191.45V191.827L81.8755 196.107L79.583 199.788L79.5202 200.386L79.583 200.952L79.8343 201.833L79.6772 202.368L79.583 203.47L79.3632 204.099L78.8293 204.602L78.5467 204.949L78.4525 205.263L78.0128 208.504L77.793 208.976L77.6988 209.7L77.7616 210.172Z" fill="white" fill-opacity="0.1" stroke="white" stroke-opacity="0.4" stroke-width="0.6" stroke-linecap="round" stroke-linejoin="round"/>
<path d="M287.576 175.938L284.593 176.473L282.803 176.944L281.452 178.486L280.133 179.399H279.066L278.783 178.172L278.469 177.102L277.15 176.63L275.329 176.189L273.853 175.245L272.345 174.49L271.026 173.42L269.519 172.476L268.325 172.948V174.176L267.572 174.962L267.886 175.875L269.362 177.731L269.676 178.958L268.922 179.871H267.572L265.939 179.556L265.342 179.871L265.028 181.098L264.588 181.727L264.274 182.64L263.678 182.797L263.081 182.325L262.359 181.413L261.165 181.098L259.815 181.413L259.061 182.042L258.747 182.797L257.711 182.954L257.114 183.71L256.957 184.811L256.36 185.881L255.481 186.479L253.848 186.95L252.623 186.793L251.147 185.881L250.551 186.353L249.64 186.793H248.603L247.567 186.95L246.813 187.58V188.807L247.127 190.034L246.374 190.947L245.18 191.733L244.709 192.646V193.558L243.987 193.716L243.233 193.401L242.197 193.244L241.726 193.716L241.6 194.628L240.847 194.943H239.936L239.496 195.415V196.013L239.057 196.799L237.989 196.485L236.67 195.572L235.476 194.345H234.723L233.812 193.401L232.776 192.96H229.949L227.845 194.03H226.809L226.338 194.502L225.898 195.257H225.019L224.108 194.502L222.758 194.03L221.282 193.873H220.528L219.083 194.439L216.854 195.1L215.849 194.817L214.875 193.684L214.624 192.331L214.718 190.758L214.53 189.468L213.493 188.996V188.681L215.566 187.926L214.907 187.36L215.001 186.667L215.221 185.944L215.032 185.251L214.718 184.716L214.907 184.244L214.875 183.993L214.624 183.804L213.933 183.395L213.651 182.891L212.96 182.923L212.771 182.734L212.74 182.294L212.394 181.476L212.363 180.689L212.583 180.248L212.991 179.776L213.493 178.927L213.022 178.109L212.551 178.014L212.017 178.329L211.389 178.612L209.442 178.235H207.37L206.899 178.518L206.459 179.745L205.799 180.028L206.145 178.895L205.485 178.675L204.48 178.958L203.727 179.336L203.476 179.651L203.193 180.28L202.69 180.374L202.094 180.185L201.78 179.808L201.937 178.927L201.089 179.556L201.057 182.357L199.864 182.923L199.895 183.395H199.267L198.953 183.332L198.576 183.049L198.419 182.734L198.262 181.916L198.105 181.633L197.886 181.476L197.163 181.192L196.661 180.846L196.441 180.563L196.41 180.248L196.598 179.367L196.567 178.927L196.41 178.707L195.844 178.329L195.719 178.109L195.781 177.857L196.221 177.228L196.347 176.976V176.63L196.19 176.473L195.907 176.378L195.248 176.41L193.991 176.63L193.363 176.661L192.704 176.504L192.39 176.347L192.296 176.095L192.358 175.875L192.924 175.025L192.986 174.742V173.798L193.049 173.515L193.301 173.074L194.243 172.13L194.494 171.658L194.274 171.438L193.74 171.281L192.986 170.998L192.39 170.903L191.856 171.06L191.416 171.344L191.134 171.407L190.82 171.375L190.474 171.092L190.349 170.809V170.494L190.443 170.242L190.788 169.77L190.851 169.519V169.015L191.039 168.48L191.102 168.166L190.945 167.977L190.725 167.882H190.16L189.626 167.82L189.375 167.882L189.03 168.26L188.841 168.763L188.653 168.952L187.805 169.047L186.674 169.55L186.297 169.015L185.983 168.008L185.701 167.568L184.853 166.876L183.628 166.246L182.34 165.774L181.273 165.585L180.582 165.711L179.545 166.309L178.949 166.592L178.415 166.687L177.536 166.592L177.002 166.624L175.965 166.876L173.61 168.103L170.658 168.763L169.716 169.173L166.89 170.966L163.906 172.036L163.027 172.256L162.085 172.13L160.86 171.532L156.746 168.575L156.243 168.008L155.898 167.316L155.239 165.019L154.736 164.012L154.045 163.163L153.072 162.345L150.905 161.338L148.801 161.18L146.728 161.715L143.619 163.477L142.991 163.698L142.269 163.446L140.164 162.156L139.819 161.747L138.845 158.348L138.374 157.373L137.746 156.492L136.898 155.8L137.118 155.108L138.029 153.503L138.626 152.653L139.348 151.898L139.85 151.678L140.479 151.583L141.421 151.489L141.923 151.269L144.278 150.671L144.498 150.545L145.692 149.57L148.706 146.675L148.832 146.423L149.052 145.416L149.02 144.472L149.209 143.56L149.492 143.339L150.434 142.93L150.842 142.238L151.313 140.067V139.186L151.187 138.148L150.748 135.819L150.496 131.823L150.245 130.879L149.586 129.935L148.424 126.505L148.487 116.562L154.799 115.021L157.248 113.29L158.756 111.465L159.667 110.647L160.452 110.238L162.556 109.577L164.754 111.654L165.225 112.661L166.136 113.384L166.984 113.856L189.124 122.321L191.636 122.73L205.58 122.509L206.145 122.226L219.492 112.566L219.9 112.346L220.434 112.157L234.189 114.706L236.387 114.674L244.018 113.699L244.647 113.384L245.275 112.692L249.451 106.273L253.346 96.3616L253.44 95.8896V95.5121L253.189 94.2849L252.843 93.4353L247.504 86.2612L247.379 85.8836L247.913 85.7892L249.514 85.3173L250.299 85.1914L250.77 85.3487L251.179 85.7578L251.838 86.6073L254.633 88.275L255.512 88.9358L256.078 89.2819L257.271 89.5336L257.805 89.8483L258.245 90.3517L258.496 90.8552L259.658 95.0715L259.689 95.6379L260.411 96.0784L262.107 98.1237L263.018 98.8789L266.221 100.421L269.048 102.655L269.425 104.197L270.429 105.109L270.743 105.833L271.152 106.431L271.905 106.777L272.722 106.934L273.287 106.965L273.005 107.626L272.785 108.004L272.691 108.35L272.816 108.916L273.162 109.231L273.696 109.357L274.072 109.671L274.041 110.553L273.758 111.024L272.753 111.968L272.377 112.535L272.282 113.07L272.22 113.699L272.094 114.297L271.717 114.612L270.743 115.209L270.429 116.122L270.555 117.223L271.152 119.52L271.277 120.59L271.183 122.887L271.843 123.013L276.585 124.775L276.93 125.467L276.71 126.128L275.988 126.411L276.396 127.135L276.867 127.796L277.495 128.33L279.505 129.054L280.228 129.526L280.73 130.313L282.614 134.749L282.709 135.914L282.332 138.022L281.201 142.081V144.252L281.704 145.605L282.52 146.455L283.462 147.178L284.373 148.248L284.687 149.255L284.656 150.325L284.373 152.433L283.556 154.793L281.861 156.555L277.495 159.009L278.218 159.607L278.909 160.645L279.945 162.691L280.573 164.579L281.704 166.372L282.646 167.442L285.566 169.582L285.912 169.959L286.351 170.746L286.634 171.092L287.168 171.344L287.639 171.407L288.047 171.595L288.393 172.193L288.299 173.137L287.576 175.938Z" fill="white" fill-opacity="0.1" stroke="white" stroke-opacity="0.4" stroke-width="0.6" stroke-linecap="round" stroke-linejoin="round"/>
<circle cx="167.168" cy="155.867" r="16.4095" fill="#59B224" fill-opacity="0.08" stroke="#6BBE46" stroke-width="0.6"/>
<circle cx="244.919" cy="153.138" r="34.824" fill="#FFC500" fill-opacity="0.06" stroke="#FFC500" stroke-width="0.6"/>
<circle cx="194.059" cy="73.3276" r="16.4095" fill="#F73029" fill-opacity="0.08" stroke="#F73029" stroke-width="0.6"/>
</svg>
