<svg xmlns="http://www.w3.org/2000/svg" width="26" height="26" viewBox="0 0 26 26" fill="none">
  <circle cx="12.5173" cy="12.699" r="12.5173" fill="#9DADAB"/>
  <path fill-rule="evenodd" clip-rule="evenodd" d="M12.6662 9.70662C13.701 9.70662 14.54 8.86768 14.54 7.8328C14.54 6.79792 13.701 5.95898 12.6662 5.95898C11.6313 5.95898 10.7923 6.79792 10.7923 7.8328C10.7923 8.86768 11.6313 9.70662 12.6662 9.70662ZM12.4854 15.2248C11.3436 10.2005 6.41992 10.3317 6.41992 10.3317C7.3357 15.533 10.4653 16.3055 11.9163 16.3763V19.7005C11.9163 20.1147 12.252 20.4505 12.6663 20.4505C13.0805 20.4505 13.4163 20.1147 13.4163 19.7005V16.2866C18.609 15.3795 18.5218 10.3314 18.5218 10.3314C13.9979 11.1001 12.939 13.6724 12.7189 15.2047C12.7015 15.2035 12.684 15.2028 12.6663 15.2028C12.6039 15.2028 12.5433 15.2105 12.4854 15.2248Z" fill="white"/>
</svg> 