<svg width="105" height="60" viewBox="0 0 105 60" fill="none" xmlns="http://www.w3.org/2000/svg">
<path d="M7.61719 50.2222C7.61719 25.453 27.9179 5.37207 52.9621 5.37207C78.0063 5.37207 98.3031 25.453 98.3031 50.2222" fill="white"/>
<path d="M7.61719 50.2222C7.61719 25.453 27.9179 5.37207 52.9621 5.37207C78.0063 5.37207 98.3031 25.453 98.3031 50.2222" stroke="#59B224" stroke-width="3" stroke-miterlimit="10" stroke-linecap="round"/>
<path d="M10.2913 50.2217H95.6334C99.974 50.2217 103.497 53.7065 103.497 58.0001H2.42773C2.42773 53.7065 5.95074 50.2217 10.2913 50.2217Z" fill="white" stroke="#59B224" stroke-width="3" stroke-miterlimit="10" stroke-linecap="round"/>
<path d="M44.8463 22.9991L42.4766 2H63.7055L60.9408 22.9991" fill="white"/>
<path d="M44.8463 22.9991L42.4766 2H63.7055L60.9408 22.9991" stroke="#59B224" stroke-width="3" stroke-miterlimit="10" stroke-linecap="round"/>
</svg>
