<svg width="104" height="100" viewBox="0 0 104 100" fill="none" xmlns="http://www.w3.org/2000/svg">
<rect y="0.34375" width="103.604" height="99.6568" rx="25" fill="#004439"/>
<path d="M52.0049 71.9688C64.2884 71.9688 74.2461 62.011 74.2461 49.7275C74.2461 37.4441 64.2884 27.4863 52.0049 27.4863C39.7214 27.4863 29.7637 37.4441 29.7637 49.7275C29.7637 62.011 39.7214 71.9688 52.0049 71.9688Z" stroke="white" stroke-width="2" stroke-linecap="round" stroke-linejoin="round"/>
<path d="M55.3948 64.4697L53.5443 60.7955L52.6013 54.4524L46.2225 53.6071L44.7812 47.7622L48.6156 43.483L54.0514 42.958L56.1776 44.6839L59.7096 45.2088L63.3037 50.0841L62.5208 56.8188L62.3162 59.897L55.3948 64.4697Z" stroke="white" stroke-width="2" stroke-linecap="round" stroke-linejoin="round"/>
<path d="M30.5547 43.8291L35.0385 47.2454L37.574 52.9925L40.4476 56.2842L38.8017 61.4798L36.3018 65.5277" stroke="white" stroke-width="2" stroke-linecap="round" stroke-linejoin="round"/>
<path d="M32.8242 38.4741L40.7421 36.7394L43.6601 34.106L48.2507 32.3713L49.9855 33.7857L57.5742 28.2432" stroke="white" stroke-width="2" stroke-linecap="round" stroke-linejoin="round"/>
<path d="M62.5295 30.1816L57.6453 34.6299L53.375 37.1207L58.0545 39.9054L62.4316 40.6704L66.2838 44.923L73.4277 43.802" stroke="white" stroke-width="2" stroke-linecap="round" stroke-linejoin="round"/>
</svg>
