<svg width="97" height="99" viewBox="0 0 97 99" fill="none" xmlns="http://www.w3.org/2000/svg">
<path d="M16.936 96.6637C16.0096 97.3825 14.6665 97.1539 14.0301 96.1692L2.17219 77.8195C1.53988 76.841 1.87439 75.5313 2.89847 74.9759L9.22729 71.5434C10.1528 71.0414 11.3091 71.343 11.8715 72.2331L22.9262 89.7275C23.4765 90.5982 23.2754 91.7445 22.4616 92.3759L16.936 96.6637Z" stroke="#59B224" stroke-width="3" stroke-miterlimit="10"/>
<path d="M13.0703 74.1301C13.0703 74.1301 18.3744 68.2736 20.9321 65.5065C23.4897 62.7394 25.0753 59.5648 36.1271 59.7638C47.1788 59.9628 60.9865 60.3608 64.1482 60.5598C67.3099 60.7588 69.0842 67.6956 64.1482 69.2781L45.6027 69.8752" stroke="#59B224" stroke-width="3" stroke-miterlimit="10" stroke-linecap="round"/>
<path d="M22.0469 88.3327L32.1832 84.3242L57.8542 82.2962C59.1378 82.192 60.3836 81.794 61.4784 81.1117L93.1331 61.647C94.7186 60.671 95.6247 58.8325 95.2943 57.0036C95.0678 55.7622 94.3317 54.5208 92.4818 53.9427C91.0095 53.4878 89.4145 53.6963 88.0649 54.4355L67.16 65.703" stroke="#59B224" stroke-width="3" stroke-miterlimit="10"/>
<path d="M65.9512 61.5174L83.5056 52.5337C84.7609 51.8988 86.2804 52.221 87.1675 53.3203L88.0736 54.448" stroke="#59B224" stroke-width="3" stroke-miterlimit="10"/>
<path d="M54.674 2C62.7977 2 69.3909 8.59319 69.3909 16.7169C69.3909 25.3509 61.5419 30.0996 61.5419 38.3018H47.8061C47.8061 30.0996 39.957 25.3509 39.957 16.7169C39.957 8.59319 46.5502 2 54.674 2Z" stroke="#59B224" stroke-width="3" stroke-linecap="round" stroke-linejoin="round"/>
<path d="M48.7871 44.9346H60.5607" stroke="#59B224" stroke-width="3" stroke-linecap="round" stroke-linejoin="round"/>
<path d="M52.7129 51.4395H56.6374" stroke="#59B224" stroke-width="3" stroke-linecap="round" stroke-linejoin="round"/>
</svg>
