<svg width="30" height="30" viewBox="0 0 30 30" fill="none" xmlns="http://www.w3.org/2000/svg">
<circle cx="15" cy="15" r="15" fill="#59B224"/>
<path fill-rule="evenodd" clip-rule="evenodd" d="M15.2623 10.8372C16.598 10.8372 17.6809 9.75432 17.6809 8.41858C17.6809 7.08283 16.598 6 15.2623 6C13.9266 6 12.8437 7.08283 12.8437 8.41858C12.8437 9.75432 13.9266 10.8372 15.2623 10.8372ZM15.0743 18.1725C13.6928 11.4706 7.19922 11.6436 7.19922 11.6436C8.42951 18.6313 12.7555 19.426 14.5117 19.4525V23.7361C14.5117 24.1503 14.8475 24.4861 15.2617 24.4861C15.6759 24.4861 16.0117 24.1503 16.0117 23.7361L16.0117 19.3656C22.9345 18.2995 22.8197 11.6432 22.8197 11.6432C16.7614 12.6726 15.5175 16.208 15.3021 18.15C15.2887 18.1493 15.2753 18.1489 15.2617 18.1489C15.197 18.1489 15.1342 18.1571 15.0743 18.1725Z" fill="white"/>
</svg> 