<svg width="437" height="294" viewBox="0 0 437 294" fill="none" xmlns="http://www.w3.org/2000/svg">
<rect width="436.301" height="293" rx="20" fill="white" fill-opacity="0.06"/>
<rect x="0.5" y="0.5" width="435.301" height="292" rx="19.5" stroke="white" stroke-opacity="0.1"/>
<path d="M122.712 201.024C121.413 219.077 111.978 231.878 108.722 244.02C107.573 248.307 92.6806 283.116 89.9961 292.372L156.557 291.603C159.485 274.534 164.687 264.7 169.571 260.763C174.455 256.826 197.346 235.162 197.346 235.162L175.302 229.277C166.549 226.94 160.461 219.012 160.461 209.953V157.043L154.929 163.908L160.461 147.195V113.715C156.229 102.556 150.697 109.773 149.722 118.31C148.746 126.847 142.562 139.647 134.427 154.416C126.292 169.185 124.012 182.97 122.712 201.024Z" fill="#94673E"/>
<rect x="160.006" y="38" width="115.128" height="202.253" rx="15" fill="#346A61"/>
<rect x="160.506" y="38.5" width="114.128" height="201.253" rx="14.5" stroke="white" stroke-opacity="0.2"/>
<rect x="166.25" y="61.25" width="102.5" height="133.5" rx="9.75" fill="white" stroke="#DDE9E7" stroke-width="0.5"/>
<circle cx="217.452" cy="130.449" r="22.438" fill="#59B224"/>
<path fill-rule="evenodd" clip-rule="evenodd" d="M217.849 124.223C219.847 124.223 221.466 122.603 221.466 120.605C221.466 118.607 219.847 116.987 217.849 116.987C215.851 116.987 214.231 118.607 214.231 120.605C214.231 122.603 215.851 124.223 217.849 124.223ZM217.733 136.064C216.064 125.154 205.797 125.428 205.797 125.428C207.902 137.386 216.068 137.219 217.606 137.079L217.606 143.517C217.606 143.655 217.718 143.767 217.856 143.767C217.994 143.767 218.106 143.655 218.106 143.517L218.106 137.09C229.343 135.935 229.162 125.427 229.162 125.427C219.093 127.138 217.914 133.476 217.858 136.031C217.857 136.031 217.857 136.031 217.856 136.031C217.811 136.031 217.769 136.043 217.733 136.064Z" fill="white"/>
<path d="M231.004 269.515C234.139 274.812 243.907 292.597 243.907 292.597L306.251 293.15C305.35 275.902 303.927 252.212 295.818 237.205C289.544 224.755 281.574 235.217 281.574 235.217C275.3 226.739 267.983 233.361 267.983 233.361C267.983 233.361 263.931 225.413 259.099 227.401C254.267 229.389 255.31 239.057 255.31 239.057C255.31 239.057 246.426 208.859 243.027 202.5C239.628 196.141 235.45 201.969 235.761 210.181C236.072 218.392 243.027 259.715 243.027 259.715C243.027 259.715 228.917 245.149 221.336 251.504C213.755 257.859 227.869 264.217 231.004 269.515Z" fill="#94673E"/>
</svg> 