<svg width="11" height="16" viewBox="0 0 11 16" fill="none" xmlns="http://www.w3.org/2000/svg">
<path d="M4.44055 14.7043C4.83684 15.3118 5.72956 15.3118 6.12586 14.7043C8.79981 10.6052 10.5664 7.93228 10.5664 5.28316C10.5664 2.36476 8.2016 0 5.2832 0C2.3648 0 0 2.36476 0 5.28316C0 7.93228 1.7666 10.6052 4.44055 14.7043Z" fill="#3B605A"/>
<path d="M5.28261 7.36002C6.343 7.36002 7.20261 6.50041 7.20261 5.44002C7.20261 4.37963 6.343 3.52002 5.28261 3.52002C4.22222 3.52002 3.36261 4.37963 3.36261 5.44002C3.36261 6.50041 4.22222 7.36002 5.28261 7.36002Z" fill="white"/>
</svg>
