<svg width="28" height="23" viewBox="0 0 28 23" fill="none" xmlns="http://www.w3.org/2000/svg">
<path d="M1 20.9841L3.20268 9.45171L8.47243 6.54617L14.0693 9.45171L19.6582 6.54617L24.9266 9.45171L27 20.7256L20.5212 18.0183L14.0761 20.9841L7.56496 17.9754L1 20.9841Z" stroke="#004439" stroke-width="1.5" stroke-miterlimit="10"/>
<path d="M8.47167 6.54621L7.56421 17.9755" stroke="#004439" stroke-width="1.5" stroke-miterlimit="10"/>
<path d="M14.0695 9.45176L14.0762 20.9841" stroke="#004439" stroke-width="1.5" stroke-miterlimit="10"/>
<path d="M19.6584 6.54621L20.5214 18.0183" stroke="#004439" stroke-width="1.5" stroke-miterlimit="10"/>
<path d="M14.0898 12.3043C16.3077 8.8768 17.8225 6.79454 17.8225 4.73264C17.8225 2.67074 16.1517 1 14.0898 1C12.0279 1 10.3572 2.67074 10.3572 4.73264C10.3572 6.79454 11.8719 8.8768 14.0898 12.3043Z" fill="#59B224" stroke="white" stroke-width="1.5" stroke-linecap="round" stroke-linejoin="round"/>
<path d="M14.0897 6.20019C14.8389 6.20019 15.4462 5.59286 15.4462 4.84368C15.4462 4.0945 14.8389 3.48717 14.0897 3.48717C13.3405 3.48717 12.7332 4.0945 12.7332 4.84368C12.7332 5.59286 13.3405 6.20019 14.0897 6.20019Z" fill="white"/>
</svg>
