<svg width="25" height="25" viewBox="0 0 25 25" fill="none" xmlns="http://www.w3.org/2000/svg">
<circle cx="12.5" cy="12.5" r="12.5" fill="#59B224"/>
<path fill-rule="evenodd" clip-rule="evenodd" d="M12.7184 9.03096C13.8315 9.03096 14.7339 8.1286 14.7339 7.01548C14.7339 5.90236 13.8315 5 12.7184 5C11.6053 5 10.7029 5.90236 10.7029 7.01548C10.7029 8.1286 11.6053 9.03096 12.7184 9.03096ZM12.5364 15.0214C11.3319 9.56117 6 9.70328 6 9.70328C6.99706 15.3662 10.4339 16.1482 11.9683 16.2073V19.7802C11.9683 20.1944 12.3041 20.5302 12.7183 20.5302C13.1325 20.5302 13.4683 20.1944 13.4683 19.7802V16.118C19.1109 15.1693 19.0166 9.70285 19.0166 9.70285C14.0948 10.5392 12.986 13.3602 12.7671 15.0008C12.751 14.9998 12.7347 14.9992 12.7183 14.9992C12.6556 14.9992 12.5946 15.0069 12.5364 15.0214Z" fill="white"/>
</svg>
