<svg width="28" height="28" viewBox="0 0 28 28" fill="none" xmlns="http://www.w3.org/2000/svg">
<circle cx="14" cy="14" r="14" fill="#9DADAB"/>
<path fill-rule="evenodd" clip-rule="evenodd" d="M14.1658 10.6535C15.3232 10.6535 16.2616 9.71515 16.2616 8.55768C16.2616 7.40022 15.3232 6.46191 14.1658 6.46191C13.0083 6.46191 12.07 7.40022 12.07 8.55768C12.07 9.71515 13.0083 10.6535 14.1658 10.6535ZM13.9829 16.9118C12.7429 11.2043 7.17969 11.3526 7.17969 11.3526C8.22301 17.2783 11.8355 18.0644 13.4157 18.1168V21.8309C13.4157 22.2451 13.7515 22.5809 14.1657 22.5809C14.5799 22.5809 14.9157 22.2451 14.9157 21.8309V18.0278C20.8133 17.0555 20.7149 11.3521 20.7149 11.3521C15.5672 12.2267 14.4308 15.1894 14.2126 16.8908C14.1971 16.8898 14.1815 16.8894 14.1657 16.8894C14.1026 16.8894 14.0414 16.8971 13.9829 16.9118Z" fill="white"/>
</svg> 