<svg width="24" height="28" viewBox="0 0 24 28" fill="none" xmlns="http://www.w3.org/2000/svg">
<path fill-rule="evenodd" clip-rule="evenodd" d="M12.3057 7.38324C14.3445 7.38324 15.9973 5.73044 15.9973 3.69162C15.9973 1.65279 14.3445 0 12.3057 0C10.2668 0 8.61404 1.65279 8.61404 3.69162C8.61404 5.73044 10.2668 7.38324 12.3057 7.38324ZM12.0956 18.9686C10.1609 8.34386 0 8.61467 0 8.61467C1.97796 19.8488 9.19816 20.5958 11.5554 20.5315V27.0721C11.5554 27.4863 11.8912 27.8221 12.3054 27.8221C12.7196 27.8221 13.0554 27.4863 13.0554 27.0721V20.4574C24.0212 19.0253 23.8415 8.61406 23.8415 8.61406C14.1685 10.2577 12.5365 16.0868 12.331 18.9393C12.3225 18.939 12.314 18.9388 12.3054 18.9388C12.2326 18.9388 12.1622 18.9492 12.0956 18.9686Z" fill="#004439"/>
</svg>
