<svg width="437" height="294" viewBox="0 0 437 294" fill="none" xmlns="http://www.w3.org/2000/svg">
<rect width="436.301" height="293" rx="20" fill="white" fill-opacity="0.06"/>
<rect x="0.5" y="0.5" width="435.301" height="292" rx="19.5" stroke="white" stroke-opacity="0.1"/>
<path d="M122.713 201.024C121.414 219.077 111.979 231.878 108.723 244.02C107.574 248.307 92.6813 283.116 89.9968 292.372L156.558 291.603C159.485 274.534 164.688 264.7 169.572 260.763C174.456 256.826 197.346 235.162 197.346 235.162L175.302 229.277C166.55 226.94 160.461 219.012 160.461 209.953V157.043L154.93 163.908L160.461 147.195V113.715C156.229 102.556 150.698 109.773 149.722 118.31C148.747 126.847 142.563 139.647 134.428 154.416C126.293 169.185 124.013 182.97 122.713 201.024Z" fill="#94673E"/>
<rect x="160.007" y="38" width="115.128" height="202.253" rx="15" fill="#346A61"/>
<rect x="160.507" y="38.5" width="114.128" height="201.253" rx="14.5" stroke="white" stroke-opacity="0.2"/>
<rect x="166.25" y="61.25" width="102.5" height="133.5" rx="9.75" fill="white" stroke="#DDE9E7" stroke-width="0.5"/>
<circle cx="217.453" cy="130.449" r="22.438" fill="#59B224"/>
<path fill-rule="evenodd" clip-rule="evenodd" d="M217.849 124.223C219.847 124.223 221.467 122.603 221.467 120.605C221.467 118.607 219.847 116.987 217.849 116.987C215.851 116.987 214.231 118.607 214.231 120.605C214.231 122.603 215.851 124.223 217.849 124.223ZM217.733 136.064C216.064 125.154 205.797 125.428 205.797 125.428C207.903 137.386 216.069 137.219 217.606 137.079L217.606 143.517C217.606 143.655 217.718 143.767 217.856 143.767C217.995 143.767 218.106 143.655 218.106 143.517L218.106 137.09C229.343 135.935 229.162 125.427 229.162 125.427C219.094 127.138 217.915 133.476 217.859 136.031C217.858 136.031 217.857 136.031 217.856 136.031C217.812 136.031 217.769 136.043 217.733 136.064Z" fill="white"/>
<path d="M231.004 269.515C234.139 274.812 243.908 292.597 243.908 292.597L306.252 293.15C305.351 275.902 303.927 252.212 295.819 237.205C289.545 224.755 281.574 235.217 281.574 235.217C275.301 226.739 267.984 233.361 267.984 233.361C267.984 233.361 263.931 225.413 259.099 227.401C254.267 229.389 255.311 239.057 255.311 239.057C255.311 239.057 246.426 208.859 243.028 202.5C239.629 196.141 235.451 201.969 235.762 210.181C236.073 218.392 243.028 259.715 243.028 259.715C243.028 259.715 228.917 245.149 221.336 251.504C213.755 257.859 227.87 264.217 231.004 269.515Z" fill="#94673E"/>
</svg>
